<?xml version="1.0" encoding="UTF-8"?>
<svg id="Capa_2" data-name="Capa 2" xmlns="http://www.w3.org/2000/svg" viewBox="0 0 127.64 110.54">
  <defs>
    <style>
      .cls-1 {
        fill: none;
        stroke: #fff;
        stroke-linecap: round;
        stroke-linejoin: round;
        stroke-width: 2.27px;
      }

      .cls-2 {
        fill: #53af3b;
      }

      .cls-3 {
        fill: #fff;
      }
    </style>
  </defs>
  <g id="Capa_1-2" data-name="Capa 1">
    <g>
      <polygon class="cls-2" points="95.73 0 31.91 0 0 55.27 31.91 110.54 95.73 110.54 127.64 55.27 95.73 0"/>
      <g>
        <g>
          <rect class="cls-1" x="38.1" y="30.06" width="51.43" height="52.41" rx="1.86" ry="1.86"/>
          <line class="cls-1" x1="89.36" y1="38.5" x2="38.1" y2="38.5"/>
        </g>
        <path class="cls-1" d="M59.3,72.04c-.26.26-.58.42-.93.49l-5.32.89c-1.17.21-2.2-.82-1.99-1.99l.89-5.32c.07-.35.23-.68.49-.93l11.57-11.57,6.87,6.87-11.57,11.57Z"/>
        <path class="cls-1" d="M75.67,55.65l-1.84,1.85-6.86-6.86,1.85-1.84c1.89-1.92,4.95-1.92,6.84,0,1.92,1.89,1.92,4.95,0,6.84Z"/>
        <circle class="cls-3" cx="84.55" cy="34.52" r="1.55"/>
        <circle class="cls-3" cx="80.17" cy="34.52" r="1.55"/>
      </g>
    </g>
  </g>
</svg>