<?xml version="1.0" encoding="UTF-8"?>
<svg id="Capa_2" data-name="Capa 2" xmlns="http://www.w3.org/2000/svg" viewBox="0 0 127.64 110.54">
  <defs>
    <style>
      .cls-1 {
        fill: #002256;
      }

      .cls-2 {
        fill: none;
        stroke: #fff;
        stroke-linecap: round;
        stroke-linejoin: round;
        stroke-width: 2.27px;
      }

      .cls-3 {
        fill: #fff;
      }
    </style>
  </defs>
  <g id="Capa_1-2" data-name="Capa 1">
    <g>
      <polygon class="cls-1" points="95.73 0 31.91 0 0 55.27 31.91 110.54 95.73 110.54 127.64 55.27 95.73 0"/>
      <g>
        <g>
          <path class="cls-2" d="M99.51,54.99c-.99-1.59-2.73-2.54-4.66-2.54h-43.04c-2.13,0-4.07,1.2-4.94,3.06l-11.38,23.87c.43,1.75,2.06,3.05,4.01,3.05h45.79c1.96,0,3.75-1.11,4.62-2.86l9.84-19.72c.78-1.56.69-3.38-.23-4.87Z"/>
          <path class="cls-2" d="M90.02,52.22v-8.63c0-2.14-1.8-3.88-4.02-3.88h-23.63s-.06,0-.07-.02l-4.23-5.91c-.75-1.05-1.99-1.68-3.31-1.68h-15.38c-2.22,0-4.02,1.74-4.02,3.88v42.79"/>
        </g>
        <g>
          <path class="cls-3" d="M41.48,36.19c-.34,0-.61.13-.79.39s-.27.61-.27,1.06.08.8.25,1.05c.17.25.44.37.81.37.17,0,.34-.02.52-.06.17-.04.36-.09.57-.17v.76c-.19.08-.37.13-.55.17-.18.04-.39.05-.61.05-.44,0-.8-.09-1.08-.27s-.49-.43-.62-.76-.2-.71-.2-1.15.08-.81.23-1.14.38-.59.67-.77c.3-.19.66-.28,1.09-.28.21,0,.42.03.63.08s.42.13.61.22l-.29.73c-.16-.08-.32-.14-.48-.2-.16-.05-.32-.08-.47-.08Z"/>
          <path class="cls-3" d="M44.7,35.5c.58,0,1.01.11,1.28.32.28.21.41.53.41.96,0,.19-.04.36-.11.51s-.17.27-.29.37c-.12.1-.25.18-.39.25l1.25,1.85h-1l-1.01-1.63h-.48v1.63h-.9v-4.25h1.24ZM44.63,36.24h-.27v1.15h.29c.3,0,.51-.05.64-.15.13-.1.19-.25.19-.44s-.07-.35-.21-.43c-.14-.09-.35-.13-.64-.13Z"/>
          <path class="cls-3" d="M49.83,39.75h-2.45v-4.25h2.45v.74h-1.55v.93h1.44v.74h-1.44v1.09h1.55v.74Z"/>
          <path class="cls-3" d="M52.52,39.75l-1.02-3.33h-.02c0,.08,0,.2.02.36,0,.16.02.33.02.51,0,.18.01.34.01.49v1.98h-.8v-4.25h1.23l1.01,3.25h.02l1.06-3.25h1.23v4.25h-.84v-2.01c0-.13,0-.29,0-.46,0-.17.01-.34.02-.5,0-.16.01-.27.01-.35h-.02l-1.09,3.33h-.83Z"/>
        </g>
      </g>
    </g>
  </g>
</svg>