<?xml version="1.0" encoding="UTF-8"?>
<svg id="Capa_2" data-name="Capa 2" xmlns="http://www.w3.org/2000/svg" viewBox="0 0 127.64 110.54">
  <defs>
    <style>
      .cls-1 {
        fill: none;
        stroke: #fff;
        stroke-linecap: round;
        stroke-linejoin: round;
        stroke-width: 2.27px;
      }

      .cls-2 {
        fill: #fff;
      }

      .cls-3 {
        fill: #007bc2;
      }
    </style>
  </defs>
  <g id="Capa_1-2" data-name="Capa 1">
    <g>
      <polygon class="cls-3" points="95.73 0 31.91 0 0 55.27 31.91 110.54 95.73 110.54 127.64 55.27 95.73 0"/>
      <g>
        <rect class="cls-1" x="38.1" y="30.06" width="51.43" height="52.41" rx="1.86" ry="1.86"/>
        <rect class="cls-1" x="66.09" y="46.36" width="16.97" height="17.47" rx="1.44" ry="1.44"/>
        <line class="cls-1" x1="89.54" y1="38.5" x2="38.1" y2="38.5"/>
        <line class="cls-1" x1="58.91" y1="47.7" x2="43.21" y2="47.7"/>
        <line class="cls-1" x1="58.91" y1="56.11" x2="43.21" y2="56.11"/>
        <line class="cls-1" x1="58.91" y1="64.52" x2="43.21" y2="64.52"/>
        <line class="cls-1" x1="83.06" y1="72.94" x2="43.21" y2="72.94"/>
        <path class="cls-1" d="M66.59,60.49c.8-1.42,2.77-6.57,5.15-4.25.86.84,1.01,2.75,2.33.94,1.22-1.67,1.71-4.09,3.28-5.49,1.21-1.09,2.52-.57,3.41.65,1.17,1.59,1.67,3.81,2.16,5.69"/>
        <circle class="cls-2" cx="84.09" cy="34.29" r="1.55"/>
        <circle class="cls-2" cx="79.71" cy="34.29" r="1.55"/>
      </g>
    </g>
  </g>
</svg>