<?xml version="1.0" encoding="UTF-8"?>
<svg id="Capa_2" data-name="Capa 2" xmlns="http://www.w3.org/2000/svg" viewBox="0 0 127.64 110.54">
  <defs>
    <style>
      .cls-1 {
        fill: none;
        stroke: #fff;
        stroke-linecap: round;
        stroke-linejoin: round;
        stroke-width: 2.27px;
      }

      .cls-2 {
        fill: #00aa89;
      }
    </style>
  </defs>
  <g id="Capa_1-2" data-name="Capa 1">
    <g>
      <polygon class="cls-2" points="95.73 0 31.91 0 0 55.27 31.91 110.54 95.73 110.54 127.64 55.27 95.73 0"/>
      <g>
        <rect class="cls-1" x="50.22" y="29.69" width="27.19" height="42.07" rx="7.81" ry="7.81"/>
        <path class="cls-1" d="M82.56,52.49v12.02c0,6.91-5.6,12.52-12.52,12.52h-12.45c-6.91,0-12.52-5.6-12.52-12.52v-12.02"/>
        <line class="cls-1" x1="63.82" y1="77.39" x2="63.82" y2="84.32"/>
        <line class="cls-1" x1="53.59" y1="84.85" x2="74.04" y2="84.85"/>
        <line class="cls-1" x1="77.41" y1="42.72" x2="69.23" y2="42.72"/>
        <line class="cls-1" x1="77.41" y1="50.9" x2="69.23" y2="50.9"/>
        <line class="cls-1" x1="77.41" y1="59.08" x2="69.23" y2="59.08"/>
        <line class="cls-1" x1="58.4" y1="42.72" x2="50.22" y2="42.72"/>
        <line class="cls-1" x1="58.4" y1="50.9" x2="50.22" y2="50.9"/>
        <line class="cls-1" x1="58.4" y1="59.08" x2="50.22" y2="59.08"/>
      </g>
    </g>
  </g>
</svg>