<?xml version="1.0" encoding="UTF-8"?>
<svg id="Capa_2" data-name="Capa 2" xmlns="http://www.w3.org/2000/svg" viewBox="0 0 127.64 110.54">
  <defs>
    <style>
      .cls-1 {
        fill: none;
        stroke: #fff;
        stroke-linecap: round;
        stroke-linejoin: round;
        stroke-width: 2.27px;
      }

      .cls-2 {
        fill: #193e92;
      }
    </style>
  </defs>
  <g id="Capa_1-2" data-name="Capa 1">
    <g>
      <polygon class="cls-2" points="95.73 0 31.91 0 0 55.27 31.91 110.54 95.73 110.54 127.64 55.27 95.73 0"/>
      <g>
        <path class="cls-1" d="M63.37,31.79c.4-1.17,1.51-2.02,2.81-2.02h13.85c1.39,0,2.53,1.13,2.53,2.53s-1.13,2.53-2.53,2.53h-11.16l4.53,3.3h6.62c3.21,0,5.83-2.61,5.83-5.83s-2.61-5.83-5.83-5.83h-13.42c-.48,0-.96,0-1.44.08-2.61.42-4.68,2.46-5.16,5.05"/>
        <path class="cls-1" d="M80.67,47.69l-17.3-12.58c-.05.15-.09.3-.11.45-.03.16-.04.33-.04.49v6.93c0,.91-.74,1.65-1.65,1.65s-1.65-.74-1.65-1.65v-6.93c0-.38.04-.76.11-1.14l-17.56,12.77c-.43.31-.68.81-.68,1.33v35.39c0,.91.74,1.65,1.65,1.65h36.28c.91,0,1.65-.74,1.65-1.65v-35.39c0-.53-.25-1.02-.68-1.33Z"/>
      </g>
    </g>
  </g>
</svg>