<?xml version="1.0" encoding="UTF-8"?><svg id="a" xmlns="http://www.w3.org/2000/svg" width="37.29" height="37.29" viewBox="0 0 37.29 37.29"><path d="M37.29,18.65h-8.6c0-5.51-4.44-10.05-10.05-10.05V0c10.34,0,18.65,8.31,18.65,18.65Z" fill="#54ae47"/><path d="M18.65,37.29v-8.6c5.51,0,10.05-4.44,10.05-10.05h8.6c0,10.34-8.4,18.65-18.65,18.65Z" fill="#0e7cc1"/><path d="M8.6,18.65h0c0,5.51,4.44,10.05,10.05,10.05v8.6h-.19c-10.24-.1-18.45-8.4-18.45-18.65s0,0,0,0h8.6Z" fill="#06aa89"/><path d="M18.65,8.6c-5.51,0-10.05,4.44-10.05,10.05H0C0,8.31,8.41,0,18.65,0s0,0,0,0v8.6h0Z" fill="#2755a6"/></svg>