<?xml version="1.0" encoding="UTF-8"?><svg id="a" xmlns="http://www.w3.org/2000/svg" width="379.2" height="49.2" viewBox="0 0 379.2 49.2"><path d="M318.8,29.9h-8.9c0-5.7-4.6-10.4-10.4-10.4v-8.9c10.7,0,19.3,8.6,19.3,19.3Z" fill="#53af3b"/><path d="M299.5,49.2v-8.9c5.7,0,10.4-4.6,10.4-10.4h8.9c0,10.7-8.7,19.3-19.3,19.3Z" fill="#007bc2"/><path d="M289.1,29.9h0c0,5.7,4.6,10.4,10.4,10.4v8.9h-.2c-10.6-.1-19.1-8.7-19.1-19.3s0,0,0,0h8.9Z" fill="#00aa89"/><path d="M299.5,19.5c-5.7,0-10.4,4.6-10.4,10.4h-8.9c0-10.7,8.7-19.3,19.3-19.3s0,0,0,0v8.9h0Z" fill="#1250b2"/><path d="M89.7,25.6l-5-13.9h-14.4v24.7l-9.6-24.7h-11.5c-1.6-6.9-6.5-11.5-15.4-11.7H0v48.5h21.6v-15.8h12.6c2.5,0,4.7-.4,6.6-1.2l-6.9,17h12.1l2.6-6.7h11.6l2.7,6.7h17.9v-13.8l5.8,13.8h13.5V11.6h-10.3v13.9h0l-.1.1ZM28.9,22.3c0,1.3-.9,2.5-2.3,2.5h-4V7.4h4c1.4-.1,2.3,1.1,2.3,2.6v12.4h0v-.1ZM51.1,34.2l3.8-10,3.7,10h-7.5ZM168.8,48.5h11.6V11.6h-11.6v36.9h0ZM155,37.8c0,.9.1,2.5-1,2.5h-2.9c-1.3,0-1.4-1.3-1.4-2.5V11.6h-12v29.3c0,7.2,7.6,7.7,7.6,7.7h13.1c6.6,0,6.4-7.6,6.4-7.6V11.6h-9.8v26.2M182.7,11.7v7.6h8.1v29.3h11.3v-29.3h8.2v-7.6h-27.6ZM127.6,11.6h-22.8v37h22.8c3.4,0,6.1-1,6.1-5.1v-27c0-3.1-2.7-5-6.1-5M122.9,37.2c0,1.7-.9,2.4-1.8,2.4h-3.3v-20.2h2.9c1.3,0,2.1,1.1,2.1,2.5v15.3h.1Z" fill="#fff"/><path d="M219.1,12.6v.8h-2.2v5.6h-.9v-5.6h-2.2v-.8h5.3Z" fill="#fff"/><path d="M219.9,12.6h1.2l1.8,5.4,1.8-5.4h1.2v6.4h-.8v-5.4l-1.8,5.4h-.9l-1.9-5.4v5.4h-.8v-6.4h.2Z" fill="#fff"/><path d="M245.6,29.9c0-11.1,8.2-19.3,19.5-19.3s11.6,2.7,15.1,7l-6.1,4.9c-2.1-2.6-5.4-4.2-8.9-4.2-6.7,0-11.2,4.9-11.2,11.6s4.5,11.6,11.2,11.6,6.8-1.6,8.9-4.2l6.1,4.9c-3.5,4.3-8.8,7-15.1,7-11.2,0-19.5-8.2-19.5-19.3h0Z" fill="#fff"/><path d="M322.1,11.4h13.2c7.5,0,14.9,2.8,14.9,12s-3.1,9.1-7.4,10.5l8.2,14.6h-9.2l-7.7-13.6h-3.7v13.6h-8.2V11.4h-.1ZM330.3,18.6v9.4h5.1c3.5,0,6.6-1.2,6.6-4.7s-3.1-4.7-6.6-4.7c0,0-5.1,0-5.1,0Z" fill="#fff"/><path d="M362,41.2h17.2v7.3h-25.4V11.4h24.8v7.3h-16.6v7.5h15.3v7h-15.3v8.1h0v-.1Z" fill="#fff"/></svg>