<?xml version="1.0" encoding="UTF-8"?><svg id="a" xmlns="http://www.w3.org/2000/svg" viewBox="0 0 504.88 109.36"><rect x="375.86" y="26.18" width="26.03" height="83.18" fill="#fff"/><polygon points="410.09 26.18 410.09 43.16 428.33 43.16 428.33 109.36 453.66 109.36 453.66 43.16 472.15 43.16 472.15 26.18 410.09 26.18" fill="#fff"/><path d="M201.98,57.59l-11.3-31.41h-32.42v55.67l-21.55-55.67h-25.9C107.14,10.83,96.08.4,76.11,0L0,.12v109.24h48.56v-35.6h28.42c5.54-.03,10.55-.98,14.96-2.7l-15.45,38.3h27.3l5.78-15.12,26.02.05,6.02,15.06h40.21v-31.21l12.98,31.21h30.47V26.18h-23.29v31.41ZM65.1,50.2c0,3-2.01,5.51-5.27,5.64h-8.88V16.52h8.88c3.25-.25,5.13,2.51,5.27,5.78v27.9ZM115,76.99l8.46-22.55,8.4,22.6-16.86-.06Z" fill="#fff"/><path d="M345.47,26.18c.21,34.37.51,59.04.51,59.04,0,1.92-.07,5.74-2.75,5.69l-6.59.03c-2.92,0-3.05-3.04-3.12-5.72l.06-59.04h-27.08v65.84c0,16.24,17.06,17.34,17.06,17.34h29.54c14.75,0,14.56-17.07,14.56-17.07V26.18h-22.18Z" fill="#fff"/><path d="M284.69,26.15h-51.21v83.21h51.21c7.63,0,13.6-2.24,13.6-11.37v-60.59c-.11-6.88-5.97-11.24-13.6-11.24ZM274.09,83.61c0,3.85-1.88,5.48-4.01,5.48h-7.36v-45.46h6.62c2.87,0,4.75,2.37,4.75,5.5v34.48Z" fill="#fff"/><path d="M477.46,26.24h11.77v1.74h-4.9v12.76h-1.95v-12.76h-4.91v-1.74Z" fill="#fff"/><path d="M502.98,40.75v-8.56c0-.42.04-2.26.04-3.62h-.04l-4.07,12.18h-1.95l-4.07-12.16h-.04c0,1.33.04,3.17.04,3.6v8.56h-1.88v-14.5h2.78l4.15,12.26h.04l4.11-12.26h2.79v14.5h-1.9Z" fill="#fff"/></svg>