<?xml version="1.0" encoding="UTF-8"?><svg id="a" xmlns="http://www.w3.org/2000/svg" width="786.24" height="227.49" viewBox="0 0 786.24 227.49"><path d="M0,113.83C0,48.29,48.38.22,114.55.22c36.83,0,68.35,15.6,88.64,41.2l-36.21,28.72c-12.48-15.3-31.52-24.66-52.44-24.66-39.64,0-66.17,28.72-66.17,68.36s26.53,68.36,66.17,68.36c20.91,0,39.95-9.36,52.44-24.66l36.21,28.72c-20.29,25.6-51.81,41.2-88.64,41.2-66.17,0-114.55-48.08-114.55-113.63Z" fill="#fff"/><path d="M450.4,4.59h77.72c44.32,0,87.71,16.54,87.71,70.54,0,35.27-18.42,53.38-43.7,61.8l48.38,86.15h-54.31l-45.57-79.9h-21.85v79.9h-48.38V4.59ZM498.78,47.35v55.56h29.96c20.6,0,38.7-6.87,38.7-27.78s-18.1-27.78-38.7-27.78c0,0-29.96,0-29.96,0Z" fill="#fff"/><path d="M684.8,180.32h101.44v42.76h-149.82V4.59h146.08v42.76h-97.7v44.01h90.2v41.2h-90.2v47.76h0Z" fill="#fff"/><path d="M430.78,113.69h-52.6c-.03-33.72-27.36-61.06-61.09-61.09V0c62.78.03,113.66,50.91,113.69,113.69Z" fill="#53af3b"/><path d="M317.05,227.49v-52.6c33.75,0,61.11-27.37,61.13-61.13h52.6c-.01,62.81-50.92,113.72-113.73,113.73h0Z" fill="#007bc2"/><path d="M255.89,113.69v.06c0,33.76,27.36,61.13,61.13,61.14v52.53h-1.47c-62.13-.8-112.26-51.35-112.26-113.67v-.06h52.6Z" fill="#00aa89"/><path d="M317.04,52.6c-33.75,0-61.11,27.35-61.14,61.09h-52.57v-.69C203.73,50.53,254.46,0,317.04,0h.02v52.6h-.02Z" fill="#1250b2"/></svg>