<?xml version="1.0" encoding="UTF-8"?><svg id="a" xmlns="http://www.w3.org/2000/svg" width="378" height="49.2" viewBox="0 0 378 49.2"><path d="M89.4,25.5l-5-13.9h-14.4v24.6l-9.5-24.6h-11.5c-1.6-6.8-6.5-11.4-15.3-11.6H0v48.4h21.5v-15.8h12.6c2.5,0,4.7-.4,6.6-1.2l-6.8,16.9h12.1l2.6-6.7h11.5l2.7,6.7h17.8v-13.8l5.8,13.8h13.5V11.6h-10.3v13.9h-.2ZM28.8,22.2c0,1.3-.9,2.5-2.3,2.5h-3.9V7.3h3.9c1.4-.1,2.3,1.1,2.3,2.6v12.3h0ZM50.9,34l3.7-10,3.7,10h-7.5.1ZM168.3,48.3h11.5V11.6h-11.5v36.8h0v-.1ZM154.5,37.7c0,.8.1,2.5-1,2.5h-2.9c-1.3,0-1.4-1.3-1.4-2.5V11.5h-12v29.2c0,7.2,7.6,7.7,7.6,7.7h13.1c6.5,0,6.4-7.6,6.4-7.6V11.5h-9.8v26.1M182.1,11.6v7.6h8.1v29.2h11.2v-29.2h8.2v-7.6h-27.5ZM127.2,11.5h-22.7v36.9h22.7c3.4,0,6.1-1,6.1-5v-26.9c0-3-2.7-5-6.1-5M122.5,37c0,1.7-.8,2.4-1.8,2.4h-3.3v-20.2h2.9c1.3,0,2.1,1.1,2.1,2.5v15.3h.1Z"/><path d="M218.4,12.5v.8h-2.2v5.6h-.9v-5.6h-2.2v-.8h5.3Z"/><path d="M219.2,12.5h1.2l1.8,5.4,1.8-5.4h1.2v6.4h-.8v-5.4l-1.8,5.4h-.8l-1.9-5.4v5.4h-.8v-6.4h.1Z"/><path d="M244.9,29.8c0-11.1,8.2-19.2,19.4-19.2s11.6,2.6,15,7l-6.1,4.9c-2.1-2.6-5.3-4.2-8.9-4.2-6.7,0-11.2,4.9-11.2,11.6s4.5,11.6,11.2,11.6,6.8-1.6,8.9-4.2l6.1,4.9c-3.4,4.3-8.8,7-15,7-11.2,0-19.4-8.1-19.4-19.2h0v-.2Z"/><path d="M321.1,11.3h13.2c7.5,0,14.9,2.8,14.9,11.9s-3.1,9-7.4,10.5l8.2,14.6h-9.2l-7.7-13.5h-3.7v13.5h-8.2V11.3h-.1ZM329.3,18.5v9.4h5.1c3.5,0,6.6-1.2,6.6-4.7s-3.1-4.7-6.6-4.7c0,0-5.1,0-5.1,0Z"/><path d="M360.8,41.1h17.2v7.2h-25.4V11.3h24.7v7.2h-16.5v7.4h15.3v7h-15.3v8.1h0v.1Z"/><path d="M317.8,29.8h-8.9c0-5.7-4.6-10.3-10.3-10.3v-8.9c10.6,0,19.2,8.6,19.3,19.3l-.1-.1Z" fill="#53af47"/><path d="M298.6,49v-8.9c5.7,0,10.3-4.6,10.3-10.3h8.9c0,10.6-8.6,19.3-19.3,19.3h0l.1-.1Z" fill="#0074b7"/><path d="M288.2,29.8h0c0,5.7,4.6,10.3,10.3,10.4v8.9h-.2c-10.5-.1-19-8.7-19-19.3h8.9Z" fill="#0a8"/><path d="M298.6,19.4c-5.7,0-10.3,4.6-10.3,10.3h-8.9c0-10.7,8.7-19.3,19.3-19.3h0v8.9h0l-.1.1Z" fill="#23418f"/></svg>