<?xml version="1.0" encoding="UTF-8"?><svg id="a" xmlns="http://www.w3.org/2000/svg" width="64" height="64" viewBox="0 0 64 64"><path d="M29.28.9C30.07.32,31.02,0,32,0s1.93.32,2.72.9l5.6,4.17c.11.08.23.14.36.19.13.04.27.06.4.06l6.98-.08c.98-.01,1.94.29,2.73.87.79.58,1.38,1.39,1.67,2.33l2.08,6.66c.04.13.1.25.18.36s.18.21.29.29l5.7,4.04c.8.57,1.39,1.38,1.7,2.31.3.93.3,1.94-.02,2.87l-2.23,6.62c-.04.13-.07.27-.07.4s.02.27.07.4l2.23,6.62c.31.93.32,1.93.02,2.87-.3.93-.9,1.74-1.7,2.31l-5.7,4.04c-.11.08-.21.17-.29.29-.08.11-.14.23-.18.36l-2.08,6.66c-.29.94-.88,1.75-1.67,2.33-.79.58-1.75.88-2.73.87l-6.98-.08c-.14,0-.27.02-.4.06-.13.04-.25.1-.36.19l-5.6,4.17c-.79.59-1.74.9-2.72.9s-1.93-.32-2.72-.9l-5.6-4.17c-.11-.08-.23-.14-.36-.19s-.27-.06-.4-.06l-6.98.08c-.98.01-1.94-.29-2.73-.87-.79-.58-1.38-1.39-1.67-2.33l-2.08-6.66c-.04-.13-.1-.25-.18-.36s-.18-.21-.29-.29l-5.7-4.04c-.8-.57-1.39-1.38-1.7-2.31-.3-.93-.3-1.94.02-2.87l2.23-6.62c.05-.13.07-.26.07-.4s-.02-.27-.07-.4l-2.23-6.62c-.31-.93-.32-1.93-.02-2.87.3-.93.9-1.74,1.7-2.31l5.7-4.04c.11-.08.21-.18.29-.29.08-.11.14-.23.18-.36l2.08-6.66c.29-.94.88-1.75,1.67-2.33s1.75-.88,2.73-.87l6.98.08c.14,0,.27-.02.4-.06.13-.04.25-.1.36-.19L29.28.9Z" fill="#0088d6" fill-rule="evenodd" isolation="isolate" opacity=".35"/><path d="M28.93,44.26c-.78,0-1.57-.3-2.17-.9l-9.2-9.2c-1.2-1.2-1.2-3.14,0-4.33s3.14-1.2,4.33,0l7.03,7.03,13.16-13.16c1.2-1.2,3.14-1.2,4.33,0s1.2,3.14,0,4.33l-15.33,15.33c-.6.6-1.38.9-2.17.9Z" fill="#0088d6"/></svg>