<?xml version="1.0" encoding="UTF-8"?><svg id="a" xmlns="http://www.w3.org/2000/svg" width="64" height="64" viewBox="0 0 64 64"><path d="M56.89,0H14.22v14.22h42.67c3.93,0,7.11-3.18,7.11-7.11S60.82,0,56.89,0Z" fill="#00856a" isolation="isolate" opacity=".35"/><path d="M14.22,0h-7.11C3.18,0,0,3.18,0,7.11s3.18,7.11,7.11,7.11h7.11c3.93,0,7.11-3.18,7.11-7.11S18.15,0,14.22,0Z" fill="#00856a"/><path d="M56.89,24.89h-10.67v14.22h10.67c3.93,0,7.11-3.18,7.11-7.11s-3.18-7.11-7.11-7.11Z" fill="#00856a" isolation="isolate" opacity=".35"/><path d="M46.22,24.89H7.11C3.18,24.89,0,28.07,0,32s3.18,7.11,7.11,7.11h39.11c3.93,0,7.11-3.18,7.11-7.11s-3.18-7.11-7.11-7.11Z" fill="#00856a"/><path d="M56.89,49.78h-21.33v14.22h21.33c3.93,0,7.11-3.18,7.11-7.11s-3.18-7.11-7.11-7.11Z" fill="#00856a" isolation="isolate" opacity=".35"/><path d="M35.56,49.78H7.11C3.18,49.78,0,52.96,0,56.89s3.18,7.11,7.11,7.11h28.44c3.93,0,7.11-3.18,7.11-7.11s-3.18-7.11-7.11-7.11Z" fill="#00856a"/></svg>