<?xml version="1.0" encoding="UTF-8"?><svg id="a" xmlns="http://www.w3.org/2000/svg" width="64" height="64" viewBox="0 0 64 64"><g isolation="isolate" opacity=".35"><ellipse cx="47.76" cy="7.98" rx="8.32" ry="7.98" fill="#c3d534"/></g><g isolation="isolate" opacity=".35"><path d="M28.3,19.56c2.17-3.11,1.12-7.39-2.41-9.2-3.07-1.57-6.92-.38-8.86,2.39l-9.36,13.38c-.86,1.23-.52,2.9.76,3.72l6.41,4.13c1.28.83,3.02.5,3.88-.73l9.58-13.68Z" fill="#c3d534"/></g><path d="M57.07,32.01l-8.95-2.86-6.37-9.01c-1.41-2.49-4.16-4.18-7.32-4.18-2.92,0-5.48,1.44-6.97,3.62h0s-6.26,9.04-6.26,9.04h0c-1.09,1.36-1.75,3.05-1.75,4.89,0,2.61,1.31,4.92,3.33,6.37l7.48,7.21c.78.75.86,1.93.19,2.78l-6.95,8.77.02.02c-.95,1.23-.91,3,.18,4.19.64.7,1.52,1.06,2.4,1.06.79,0,1.58-.28,2.2-.86l12.65-11.6c1.82-1.67,2.13-4.36.84-6.39l.03-.03-6-8.76,3.73-5.39,4.3,3.4c.35.33.77.59,1.24.74l9.99,3.19c.33.11.66.16.99.16,1.38,0,2.66-.88,3.1-2.27.55-1.71-.4-3.55-2.11-4.1Z" fill="#c3d534"/><path d="M9.13,30.29c-1.44.12-2.82.82-3.71,2.05-1.04,1.44-.94,4.96-.74,7.21.09,1.08,1.19,1.81,2.28,1.51,2.26-.62,5.73-1.76,6.78-3.2.92-1.27,1.1-2.81.66-4.18l-5.27-3.39Z" fill="#c3d534"/></svg>