<?xml version="1.0" encoding="UTF-8"?><svg id="a" xmlns="http://www.w3.org/2000/svg" width="64" height="64" viewBox="0 0 64 64"><circle cx="32" cy="32" r="32" fill="#53af3b" opacity=".35"/><circle cx="32" cy="32" r="6.4" fill="#4fa838"/><path d="M32,35.2c-.82,0-1.64-.31-2.26-.94-1.25-1.25-1.25-3.27,0-4.52L52.14,7.34c1.25-1.25,3.27-1.25,4.52,0s1.25,3.27,0,4.52l-22.4,22.4c-.62.62-1.44.94-2.26.94Z" fill="#4fa838"/><path d="M44.71,32.86c-.45,6.65-5.95,11.94-12.71,11.94s-12.8-5.74-12.8-12.8,5.29-12.26,11.94-12.71l5.81-5.81c-1.58-.43-3.24-.67-4.95-.67-10.59,0-19.2,8.61-19.2,19.2s8.61,19.2,19.2,19.2,19.2-8.61,19.2-19.2c0-1.72-.25-3.37-.67-4.95l-5.81,5.81h-.01Z" fill="#4fa838"/><path d="M55.57,22.01c1.31,3.07,2.03,6.45,2.03,9.99,0,14.12-11.48,25.6-25.6,25.6S6.4,46.12,6.4,32,17.88,6.4,32,6.4c3.54,0,6.92.73,9.99,2.03l4.79-4.79C42.35,1.32,37.33,0,32,0c-17.64,0-32,14.36-32,32s14.36,32,32,32,32-14.36,32-32c0-5.33-1.33-10.36-3.64-14.78,0,0-4.79,4.79-4.79,4.79Z" fill="#4fa838"/></svg>