<?xml version="1.0" encoding="UTF-8"?><svg id="a" xmlns="http://www.w3.org/2000/svg" width="64" height="64" viewBox="0 0 64 64"><path d="M0,54.87v-18.56C0,34.13,1.5,32.23,3.63,31.73l7.38-1.74c3.77-.89,7.73-.54,11.29.99l14.01,6.04c4.44,1.92,6.45,7.11,4.43,11.52h0l1.19,1.56,14.89-5.31c2.83-1.05,5.96.45,6.91,3.31h0c.84,2.51-.3,5.26-2.67,6.45l-14.79,7.45c-2.95,1.47-6.36,1.72-9.48.68l-19.65-6.55c-2.8-.93-5.82-.94-8.63-.03l-4.71,1.54C1.92,58.24,0,56.84,0,54.87Z" fill="#193e92" isolation="isolate" opacity=".35"/><circle cx="46.9" cy="17.1" r="15.19" fill="#193e92" isolation="isolate" opacity=".35"/><path d="M46.9,0c-9.44,0-17.1,7.66-17.1,17.1s7.66,17.1,17.1,17.1,17.1-7.66,17.1-17.1S56.34,0,46.9,0ZM48.36,27.97v1.36c0,.85-.69,1.55-1.55,1.55s-1.55-.69-1.55-1.55v-1.09c-1.29-.14-2.36-.52-3.23-1.02-1.04-.59-1.31-1.97-.64-2.96l.06-.09c.58-.85,1.72-1.21,2.64-.73.54.28,1.2.5,1.97.5,1.73,0,2.05-1.46,2.05-2.13,0-3.49-6.97-2.27-6.97-8.98,0-3.03,1.68-5.4,4.27-6.27v-1.25c0-.85.69-1.55,1.55-1.55s1.55.69,1.55,1.55v.93c.98.09,1.8.33,2.45.62,1.19.54,1.58,2.03.82,3.1-.59.83-1.69,1.22-2.62.8-.39-.17-.85-.3-1.38-.3s-2.08.21-2.08,2.17c0,3.33,7.05,2.46,7.05,8.85,0,3-1.54,5.61-4.41,6.49Z" fill="#193e92"/></svg>