<?xml version="1.0" encoding="UTF-8"?><svg id="a" xmlns="http://www.w3.org/2000/svg" width="35.92" height="42.18" viewBox="0 0 35.92 42.18"><path d="M7.61,35.2l-6.98.78,6.18-12.93c-1.92-2.49-2.93-5.45-2.93-8.58C3.88,6.69,10.19.38,17.96.38s14.08,6.32,14.08,14.09c0,3.13-1.01,6.09-2.93,8.58l6.18,12.93-6.98-.78-3.88,6.2-5.98-12.87c-.17.01-.33.02-.5.02s-.33-.01-.5-.02l-5.98,12.87-3.88-6.2ZM24.67,37.63l2.72-4.35,4.89.54-4.46-9.33c-2.04,2-4.66,3.35-7.47,3.83l4.32,9.3ZM11.25,37.63l4.32-9.3c-2.81-.48-5.43-1.83-7.47-3.83l-4.46,9.33,4.89-.54,2.72,4.35ZM17.96,2.17c-6.78,0-12.29,5.51-12.29,12.29s5.51,12.29,12.29,12.29,12.29-5.51,12.29-12.29S24.74,2.17,17.96,2.17ZM17.99,19.59l-5.29,2.73,1.05-5.86-4.23-4.19,5.9-.81,2.67-5.32,2.6,5.36,5.88.9-4.29,4.12.96,5.88-5.25-2.81ZM20.88,19.09l-.53-3.21,2.35-2.25-3.22-.49-1.42-2.93-1.46,2.91-3.22.44,2.31,2.29-.57,3.2,2.89-1.49,2.87,1.54Z" fill="#e2eb9e"/><path d="M17.96.75c7.56,0,13.71,6.15,13.71,13.71,0,3.22-1.13,6.19-3,8.53l5.99,12.53-6.54-.73-3.63,5.82-5.79-12.48c-.24.01-.48.04-.73.04s-.49-.02-.73-.04l-5.79,12.48-3.63-5.82-6.54.73,5.99-12.53c-1.87-2.34-3-5.31-3-8.53C4.25,6.9,10.4.75,17.96.75M17.96,27.12c6.98,0,12.66-5.68,12.66-12.66S24.94,1.8,17.96,1.8,5.3,7.48,5.3,14.46s5.68,12.66,12.66,12.66M3.02,34.28l5.32-.59,2.96,4.73,4.82-10.38c-3.19-.43-6.02-1.95-8.13-4.18l-4.98,10.43M24.62,38.42l2.96-4.73,5.32.59-4.98-10.43c-2.1,2.23-4.94,3.75-8.13,4.18l4.82,10.38M17.96,0C9.99,0,3.5,6.49,3.5,14.46c0,3.14.99,6.11,2.87,8.62L.58,35.2l-.58,1.22,1.34-.15,6.07-.67,3.38,5.42.73,1.17.58-1.26,5.58-12.01c.09,0,.18,0,.27,0s.18,0,.27,0l5.58,12.01.58,1.26.73-1.17,3.38-5.42,6.07.67,1.34.15-.58-1.22-5.79-12.12c1.88-2.51,2.87-5.49,2.87-8.62,0-7.97-6.49-14.46-14.46-14.46h0ZM17.96,26.37c-6.57,0-11.91-5.34-11.91-11.91S11.39,2.55,17.96,2.55s11.91,5.34,11.91,11.91-5.34,11.91-11.91,11.91h0ZM4.28,33.38l3.95-8.26c1.92,1.75,4.28,2.96,6.81,3.48l-3.83,8.24-2.23-3.56-.25-.4-.47.05-3.98.44h0ZM20.89,28.61c2.53-.53,4.89-1.74,6.81-3.48l3.95,8.26-3.98-.44-.47-.05-.25.4-2.23,3.56-3.83-8.24h0Z" fill="#d4f3ec"/><path d="M18.09,6.99l2.35,4.85,5.33.82-3.89,3.73.87,5.32-4.75-2.54-4.79,2.47.95-5.31-3.83-3.79,5.34-.73,2.42-4.81M14.61,19.73l3.39-1.75,3.37,1.8-.62-3.77,2.75-2.64-3.77-.58-1.66-3.44-1.72,3.41-3.78.52,2.71,2.69-.67,3.76M18.1,5.3l-.68,1.36-2.25,4.46-4.95.68-1.51.21,1.08,1.07,3.55,3.51-.88,4.92-.27,1.5,1.35-.7,4.44-2.29,4.4,2.36,1.34.72-.25-1.5-.81-4.93,3.6-3.46,1.1-1.05-1.5-.23-4.94-.76-2.18-4.5-.66-1.37h0ZM14.18,13.82l2.28-.31.39-.05.18-.35,1.03-2.05,1,2.07.17.35.39.06,2.27.35-1.66,1.59-.28.27.06.39.37,2.27-2.03-1.08-.35-.19-.35.18-2.04,1.05.41-2.26.07-.39-.28-.28-1.63-1.62h0Z" fill="#d4f3ec"/><path d="M28.68,22.99c1.87-2.34,3-5.31,3-8.53,0-7.56-6.15-13.71-13.71-13.71S4.25,6.9,4.25,14.46c0,3.22,1.13,6.19,3,8.53l-5.99,12.53,6.54-.73,3.63,5.82,5.79-12.48c.24.01.48.04.73.04s.49-.02.73-.04l5.79,12.48,3.63-5.82,6.54.73-5.99-12.53ZM11.3,38.42l-2.96-4.73-5.32.59,4.98-10.43c2.1,2.23,4.94,3.75,8.13,4.18l-4.82,10.38ZM5.3,14.46C5.3,7.48,10.98,1.8,17.96,1.8s12.66,5.68,12.66,12.66-5.68,12.66-12.66,12.66-12.66-5.68-12.66-12.66ZM27.58,33.68l-2.96,4.73-4.82-10.38c3.19-.43,6.02-1.95,8.13-4.18l4.98,10.43-5.32-.59Z" fill="#00856a"/><path d="M22.75,21.71l-4.75-2.54-4.79,2.47.95-5.31-3.83-3.79,5.34-.73,2.42-4.81,2.35,4.85,5.33.82-3.89,3.73.87,5.32ZM18,17.98l3.37,1.8-.62-3.77,2.75-2.64-3.77-.58-1.66-3.44-1.72,3.41-3.78.52,2.71,2.69-.67,3.76,3.39-1.75Z" fill="#00856a"/></svg>