<?xml version="1.0" encoding="UTF-8"?><svg id="a" xmlns="http://www.w3.org/2000/svg" width="38.54" height="45.25" xmlns:xlink="http://www.w3.org/1999/xlink" viewBox="0 0 38.54 45.25"><defs><linearGradient id="b" x1="19.27" y1="45.25" x2="19.27" y2="0" gradientUnits="userSpaceOnUse"><stop offset="0" stop-color="#f3fbf9"/><stop offset="1" stop-color="#b5f7ed"/></linearGradient></defs><path d="M37.91,37.76l-6.21-13c2.02-2.7,3.08-5.88,3.08-9.25,0-8.55-6.96-15.51-15.51-15.51S3.76,6.96,3.76,15.51c0,3.37,1.06,6.55,3.08,9.25L.62,37.76l-.62,1.31,1.44-.16,6.52-.72,3.63,5.81.79,1.26.63-1.35,5.99-12.89c.09,0,.19,0,.29,0s.19,0,.28,0l5.99,12.89.63,1.35.79-1.26,3.63-5.81,6.52.72,1.44.16-.62-1.31Z" fill="url(#b)"/><path d="M29.98,24.43c1.87-2.34,3-5.31,3-8.53,0-7.56-6.15-13.71-13.71-13.71S5.56,8.34,5.56,15.9c0,3.22,1.13,6.19,3,8.53l-5.99,12.53,6.54-.73,3.63,5.82,5.79-12.48c.24.01.48.04.73.04s.49-.02.73-.04l5.79,12.48,3.63-5.82,6.54.73-5.99-12.53ZM12.61,39.85l-2.96-4.73-5.32.59,4.98-10.43c2.1,2.23,4.94,3.75,8.13,4.18l-4.82,10.38ZM6.61,15.9c0-6.98,5.68-12.66,12.66-12.66s12.66,5.68,12.66,12.66-5.68,12.66-12.66,12.66-12.66-5.68-12.66-12.66ZM28.89,35.12l-2.96,4.73-4.82-10.38c3.19-.43,6.02-1.95,8.13-4.18l4.98,10.43-5.32-.59Z" fill="#00856a"/><path d="M24.05,23.15l-4.75-2.54-4.79,2.47.95-5.31-3.83-3.79,5.34-.73,2.42-4.81,2.35,4.85,5.33.82-3.89,3.73.87,5.32ZM19.31,19.42l3.37,1.8-.62-3.77,2.75-2.64-3.77-.58-1.66-3.44-1.72,3.41-3.78.52,2.71,2.69-.67,3.76,3.39-1.75Z" fill="#00856a"/></svg>