<?xml version="1.0" encoding="UTF-8"?><svg id="a" xmlns="http://www.w3.org/2000/svg" width="18.06cm" height="18.06cm" viewBox="0 0 512 512"><circle cx="256" cy="256" r="208.01" fill="#00aa89" isolation="isolate" opacity=".35"/><path d="M256,19.21C125.23,19.21,19.21,125.23,19.21,256s106.01,236.79,236.79,236.79,236.79-106.01,236.79-236.79S386.77,19.21,256,19.21ZM221.28,322.33c6.93,11.84,18.85,17.76,35.78,17.76,14.32,0,25.27-3.37,32.85-10.12,7.58-6.75,11.61-17.46,12.08-32.14h61.97c-.83,18-5.68,33.89-14.56,47.68-8.88,13.79-21.34,24.48-37.38,32.05-16.04,7.58-34.36,11.36-54.96,11.36-33.98,0-60.73-11.07-80.27-33.21-19.53-22.14-29.3-53.39-29.3-93.76v-12.79c0-25.33,4.42-47.5,13.23-66.5,8.82-19,21.52-33.68,38.09-44.04,16.58-10.36,35.75-15.54,57.54-15.54,31.37,0,56.58,8.26,75.65,24.77,19.06,16.51,29.9,39.27,32.5,68.28h-62.16c-.47-15.74-4.44-27.05-11.9-33.92-7.46-6.86-18.83-10.3-34.09-10.3s-26.88,5.8-34.09,17.4c-7.22,11.61-11.01,30.13-11.37,55.59v18.29c0,27.58,3.47,47.3,10.39,59.13Z" fill="#00aa89"/></svg>