<?xml version="1.0" encoding="UTF-8"?><svg id="a" xmlns="http://www.w3.org/2000/svg" width="18.06cm" height="18.06cm" viewBox="0 0 512 512"><path d="M408.1,2.5h-105.76c-27.07,0-52.52,10.55-71.69,29.68L28.48,234.35c-16.76,16.78-25.98,39.06-25.98,62.74s9.23,45.98,25.98,62.74l123.68,123.68c16.76,16.76,39.04,25.98,62.74,25.98s45.98-9.23,62.74-25.98l202.14-202.17c19.16-19.14,29.71-44.62,29.71-71.69v-105.76c0-55.92-45.48-101.4-101.4-101.4ZM382.75,179.95c-28.01,0-50.7-22.71-50.7-50.7s22.69-50.7,50.7-50.7,50.7,22.69,50.7,50.7-22.69,50.7-50.7,50.7Z" fill="#007bc2" isolation="isolate" opacity=".35"/><path d="M325.38,248.72l-65.99-85.86c-8.11-10.57-24.03-10.57-32.17,0l-65.99,85.86c-10.24,13.33-.71,32.63,16.1,32.63h27.96v88.72c0,20.99,17.04,38.02,38.02,38.02s38.02-17.04,38.02-38.02v-88.72h27.96c16.81,0,26.34-19.29,16.07-32.63Z" fill="#007bc2"/></svg>