<?xml version="1.0" encoding="UTF-8"?><svg id="a" xmlns="http://www.w3.org/2000/svg" width="18.06cm" height="18.06cm" viewBox="0 0 512 512"><path d="M256-.69c-14.17,0-25.67,11.5-25.67,25.67v102.68c0,14.17,11.5,25.67,25.67,25.67s25.67-11.5,25.67-25.67V24.98c0-14.17-11.5-25.67-25.67-25.67Z" fill="#193e92"/><path d="M351.16,32.5c-10.04-10.04-26.29-10.01-36.3,0-3.57,3.59-69.02,69.02-72.59,72.59-10.01,10.01-10.01,26.29,0,36.3,10.04,10.04,26.29,10.04,36.3,0,3.57-3.57,69.02-69.02,72.59-72.59,10.04-10.01,10.04-26.29,0-36.3Z" fill="#193e92"/><path d="M269.76,141.41c-10.04,10.04-26.29,10.01-36.3,0-3.57-3.59-69.02-69.02-72.59-72.59-10.01-10.01-10.01-26.29,0-36.3,10.04-10.04,26.29-10.04,36.3,0,3.57,3.57,69.02,69.02,72.59,72.59,10.01,10.01,10.01,26.26,0,36.3Z" fill="#193e92"/><path d="M101.99,101.99h308.03c42.53,0,77.01,34.47,77.01,77.01v25.67H24.98v-25.67c0-42.53,34.47-77.01,77.01-77.01Z" fill="#193e92"/><path d="M101.99,512.69h308.03c42.53,0,77.01-34.47,77.01-77.01v-231.02H24.98v231.02c0,42.53,34.47,77.01,77.01,77.01Z" fill="#193e92" isolation="isolate" opacity=".35"/><rect x="230.33" y="204.66" width="51.34" height="308.03" fill="#193e92"/></svg>