<?xml version="1.0" encoding="UTF-8"?><svg id="a" xmlns="http://www.w3.org/2000/svg" width="18.06cm" height="18.06cm" viewBox="0 0 512 512"><path d="M459.65,6.61H52.35C24.22,6.61,1.43,29.4,1.43,57.53v203.65c0,28.13,22.78,50.91,50.91,50.91h407.31c28.13,0,50.91-22.78,50.91-50.91V57.53c0-28.13-22.78-50.91-50.91-50.91Z" fill="#00aa89" isolation="isolate" opacity=".35"/><ellipse cx="256" cy="159.35" rx="89.1" ry="101.83" fill="#00aa89"/><circle cx="434.2" cy="159.35" r="25.46" fill="#00aa89"/><circle cx="77.8" cy="159.35" r="25.46" fill="#00aa89"/><path d="M205.09,312.09v101.83c0,28.13,22.78,50.91,50.91,50.91s50.91-22.78,50.91-50.91v-101.83h-101.83Z" fill="#00aa89"/><path d="M171.87,388.46c-15.71,0-23.6,18.94-12.55,30.09l78.53,79.27c10,10.08,26.3,10.08,36.3,0l78.53-79.27c11.05-11.15,3.13-30.09-12.55-30.09h-168.27Z" fill="#00aa89"/></svg>