<?xml version="1.0" encoding="UTF-8"?><svg id="a" xmlns="http://www.w3.org/2000/svg" width="459.59" height="459.59" viewBox="0 0 459.59 459.59"><path d="M383,459.59H76.6c-42.3,0-76.6-34.29-76.6-76.6V76.6C0,34.3,34.29,0,76.6,0h306.39c42.3,0,76.6,34.29,76.6,76.6v306.39c0,42.3-34.29,76.6-76.6,76.6h0Z" fill="#6bc8ff" isolation="isolate" opacity=".35"/><path d="M214.01,117.61c3.1-5.84,9.16-9.5,15.79-9.5s12.7,3.66,15.79,9.5l29.97,56.53c.33.67.84,1.23,1.43,1.66.59.44,1.28.72,2.02.84l63.03,11.03c6.53,1.15,11.88,5.78,13.92,12.08,2.05,6.3.44,13.21-4.15,17.97l-44.5,45.98c-.51.54-.9,1.18-1.13,1.87-.23.72-.31,1.46-.18,2.18l8.98,63.36c.92,6.55-1.84,13.08-7.19,16.97s-12.41,4.5-18.38,1.59l-57.48-28.13c-.67-.33-1.41-.49-2.15-.49s-1.46.18-2.15.49l-57.48,28.13c-5.94,2.92-13,2.3-18.38-1.59-5.35-3.89-8.11-10.42-7.19-16.97l8.98-63.36c.1-.74.05-1.48-.18-2.18-.23-.72-.61-1.36-1.13-1.87l-44.5-45.98c-4.61-4.76-6.19-11.67-4.15-17.97,2.05-6.3,7.4-10.95,13.92-12.08l63.03-11.03c.74-.13,1.43-.41,2.02-.84.59-.44,1.1-1,1.43-1.66l29.97-56.53h.06Z" fill="#0071b2" fill-rule="evenodd"/></svg>