<?xml version="1.0" encoding="UTF-8"?><svg id="a" xmlns="http://www.w3.org/2000/svg" width="1.98cm" height="1.98cm" viewBox="0 0 56 56"><polygon points="42 3.75 14 3.75 0 28 14 52.25 42 52.25 56 28 42 3.75" fill="#dde4f8"/><path d="M45.67,32.14l-.54-7.04c-.22-1.37-1.18-3.75-3.35-4.55.71-.93,1.14-2.08,1.14-3.34,0-3.03-2.46-5.49-5.49-5.49-2.5,0-4.61,1.68-5.27,3.98-1.17-.88-2.62-1.4-4.2-1.4s-2.97.5-4.13,1.35c-.68-2.26-2.78-3.92-5.26-3.92-3.03,0-5.49,2.46-5.49,5.49,0,1.26.43,2.41,1.14,3.34-2.16.78-3.12,3.09-3.35,4.6l-.53,6.94c-.11.67.09,1.35.53,1.87.44.52,1.08.81,1.76.81h3.54l-.65,7.2c-.13.83.11,1.67.65,2.31.55.64,1.34,1,2.18,1h2.41c1.51,2.41,4.17,4.01,7.21,4.01s5.71-1.61,7.21-4.01h2.41c.84,0,1.63-.37,2.18-1,.54-.64.78-1.48.66-2.27l-.66-7.23h3.62c.68,0,1.32-.3,1.76-.81.44-.52.63-1.2.53-1.82M38.82,43.48c-.31.36-.77.57-1.25.57h-1.77c.42-1.01.65-2.11.65-3.27,0-2.35-.95-4.47-2.49-6.01-.22-.22-.45-.42-.69-.61-.28-.22-.57-.43-.88-.61-1.12-.69-2.41-1.13-3.79-1.24h-.01c-.2-.01-.4-.03-.6-.03,0,0,0,0-.01,0-.01,0-.02,0-.04,0-.19,0-.37.02-.56.03,0,0,0,0-.01,0-1.42.1-2.74.54-3.88,1.24-.3.19-.6.39-.88.61-.24.19-.47.39-.69.61-1.54,1.54-2.49,3.67-2.49,6.01,0,1.16.23,2.26.65,3.27h-1.77c-.48,0-.93-.21-1.25-.57-.31-.36-.45-.85-.37-1.36l.67-7.35.05-.61.06-.61.11-1.19c.08-.53.93-5.16,5.1-5.16h1.31c.81.54,1.73.92,2.72,1.09.21.04.42.07.63.08.19.02.38.03.58.03.01,0,.02,0,.04,0h.01c.21,0,.41-.01.61-.03.21-.02.43-.05.63-.09.96-.18,1.86-.55,2.64-1.08h1.31c3.39,0,4.82,3.38,5.09,5.13l.11,1.23.06.61.06.61.67,7.39c.07.47-.06.96-.37,1.32M21.8,44.66c-.71-1.12-1.13-2.45-1.13-3.88,0-2.49,1.26-4.7,3.18-6.01.34-.24.71-.44,1.09-.61.82-.38,1.73-.6,2.68-.64,0,0,.01,0,.02,0,.1,0,.21-.02.31-.02.14,0,.27.01.4.02,0,0,0,0,.01,0,.92.05,1.8.27,2.6.64.38.17.75.38,1.09.61,1.92,1.31,3.18,3.52,3.18,6.01,0,1.43-.42,2.76-1.13,3.88-1.29,2.04-3.56,3.4-6.15,3.4s-4.86-1.36-6.15-3.4M11.55,32.23l.53-6.95c.06-.36.6-3.34,3.14-3.74.93.72,2.09,1.15,3.36,1.15.86,0,1.66-.2,2.39-.55.17,1.45.78,2.77,1.69,3.82-4.16.04-5.89,3.9-6.25,6.23l-.12,1.34h-3.65c-.32,0-.62-.14-.83-.38-.21-.24-.3-.57-.24-.93M22.78,16.56c-.93,1.01-1.57,2.29-1.79,3.71-.02.16-.05.32-.06.48-.07.05-.14.09-.21.13-.63.37-1.37.59-2.15.59s-1.52-.22-2.15-.59c-.29-.17-.56-.37-.8-.6-.81-.78-1.32-1.87-1.32-3.08,0-2.36,1.92-4.27,4.27-4.27,2.14,0,3.9,1.58,4.21,3.63M27.96,15.51c1.54,0,2.94.61,3.99,1.59.24.22.45.46.65.72.54.71.92,1.54,1.09,2.45,0,.02,0,.05.01.07.03.18.05.36.07.54.01.14.02.27.02.42,0,.01,0,.03,0,.04,0,.05,0,.1,0,.16-.05,1.82-.94,3.43-2.29,4.47-.31.24-.64.44-.99.61-.33.16-.67.29-1.03.38-.21.06-.42.1-.64.13-.21.03-.42.05-.63.06-.08,0-.16.01-.24.01-.05,0-.1,0-.15,0-.21,0-.42-.02-.63-.05-.22-.03-.43-.07-.64-.12-.39-.1-.76-.23-1.12-.41-.35-.17-.68-.38-.99-.61-1.35-1.04-2.24-2.65-2.29-4.47,0-.04,0-.08,0-.12,0-.01,0-.03,0-.04,0-.15.01-.31.02-.46.01-.15.03-.29.05-.43,0-.06.02-.12.03-.18.18-.97.6-1.85,1.19-2.59.19-.24.4-.45.63-.66,1.04-.94,2.4-1.51,3.9-1.51M41.7,17.21c0,1.21-.51,2.3-1.32,3.08-.24.23-.51.43-.8.6-.63.37-1.37.59-2.15.59s-1.52-.22-2.15-.59c-.1-.06-.2-.12-.3-.19-.01-.14-.04-.28-.06-.42-.21-1.38-.82-2.63-1.72-3.63.28-2.09,2.06-3.71,4.23-3.71,2.35,0,4.27,1.92,4.27,4.27M39.51,32.16c-.34-2.13-2.08-6.16-6.25-6.19.92-1.06,1.54-2.39,1.7-3.86.74.38,1.58.59,2.47.59,1.26,0,2.42-.43,3.35-1.15,2.06.35,2.95,2.53,3.14,3.69l.54,7.04c.05.32-.04.64-.25.88-.21.24-.51.38-.83.38h-3.74l-.13-1.38Z" fill="#223485"/><path d="M32.38,36.74h0c-.29-.21-.67-.13-.88.12l-4.85,6.73-2.17-3.03c-.21-.29-.58-.34-.88-.13-.29.21-.34.59-.13.88l2.38,3.35.28.4c.12.17.29.25.5.25.21,0,.38-.08.5-.25l.29-.4,5.1-7.04c.21-.29.13-.67-.16-.88" fill="#223485"/></svg>