<?xml version="1.0" encoding="UTF-8"?><svg id="a" xmlns="http://www.w3.org/2000/svg" width="1.41cm" height="1.3cm" viewBox="0 0 40.09 36.95"><path d="M40.09,11.23c0-3-1.17-5.83-3.3-7.95-4.39-4.38-11.52-4.38-15.9,0,0,0,0,0,0,0l-.84.84-.84-.84C14.82-1.1,7.68-1.1,3.29,3.29,1.17,5.41,0,8.23,0,11.23s1.17,5.83,3.29,7.95l1.72,1.72-.84.84c-.5.5-.72,1.23-.61,2.02.1.72.48,1.44,1.05,2.01.7.7,1.6,1.07,2.42,1.07.01,0,.03,0,.04,0,0,.15,0,.29.02.44.1.72.47,1.44,1.05,2.01.7.7,1.6,1.07,2.42,1.07.01,0,.03,0,.04,0,0,.14,0,.29.02.44.1.72.48,1.44,1.05,2.01.7.7,1.6,1.07,2.42,1.07.17,0,.34-.02.5-.05.09.73.45,1.47,1.04,2.06.7.7,1.59,1.07,2.41,1.07.62,0,1.19-.2,1.61-.63t0,0l.4-.4.4.4h0c.42.43,1,.63,1.61.63.82,0,1.71-.37,2.42-1.07.59-.59.95-1.33,1.04-2.06.16.03.33.05.5.05.82,0,1.71-.37,2.42-1.07.57-.57.94-1.29,1.05-2.01.02-.15.02-.3.02-.44.01,0,.03,0,.04,0,.82,0,1.71-.37,2.42-1.07.57-.57.94-1.29,1.05-2.01.02-.15.02-.3.02-.44.01,0,.02,0,.04,0,.82,0,1.71-.37,2.42-1.07.57-.57.95-1.28,1.05-2.01.11-.78-.11-1.52-.61-2.02h0s-.85-.84-.85-.84l1.72-1.72c2.12-2.12,3.3-4.94,3.3-7.95M5.56,24.82c-.36-.36-.6-.82-.67-1.25-.03-.21-.04-.61.23-.88l1.32-1.32h0s3.96-3.96,3.96-3.96h0c.46-.46,1.43-.26,2.13.44.36.36.61.82.67,1.25.03.21.04.61-.23.88l-5.28,5.27c-.46.46-1.43.25-2.13-.44M9.08,28.34c-.36-.36-.61-.82-.67-1.25-.03-.21-.04-.61.23-.88l1.4-1.4h0l4.32-4.32c.46-.46,1.43-.25,2.13.44.36.36.61.82.67,1.25.03.21.04.61-.23.88l-.44.44h0s0,0,0,0l-2.01,2.01-1.51,1.51h0s-1.76,1.76-1.76,1.76c-.46.46-1.43.25-2.13-.44M12.6,31.86c-.36-.36-.61-.82-.67-1.25-.03-.21-.04-.61.23-.88l5.28-5.28c.46-.46,1.43-.25,2.13.44.36.36.61.82.67,1.25.03.21.04.61-.23.88l-.88.88h0l-3.52,3.52h0l-.44.44s0,0,0,0c-.1.1-.18.21-.26.32-.06.03-.13.07-.18.12-.46.46-1.43.26-2.13-.44M16.56,34.93c-.43-.43-.68-.97-.68-1.46,0-.19.04-.46.24-.67h0l3.96-3.96c.46-.45,1.43-.25,2.13.44.36.36.61.82.67,1.25.03.21.04.61-.23.88l-3.08,3.08h0s0,0,0,0l-.88.88h0c-.46.46-1.43.26-2.13-.44M23.53,34.93c-.7.7-1.67.9-2.13.44l-.4-.4,2.57-2.57.4.4h0c.2.2.24.47.24.66,0,.49-.25,1.03-.68,1.46M35.19,23.57c-.06.43-.3.89-.67,1.25-.7.7-1.67.9-2.13.44l-4.84-4.83s0,0,0,0c0,0-.02-.01-.03-.02-.26-.24-.67-.24-.92.02-.1.1-.15.23-.18.37,0,.04-.02.07-.02.11,0,.05.02.09.03.14,0,.04,0,.08.02.12,0,0,0,0,0,0,.03.08.08.15.14.21l4.4,4.39h0s.44.44.44.44c.27.27.26.66.23.88-.06.43-.31.89-.67,1.25-.7.69-1.67.89-2.13.44l-.74-.74-4.1-4.09s0,0-.01,0c-.05-.05-.11-.09-.18-.12-.03-.01-.06-.02-.09-.03-.04-.01-.09-.02-.13-.03-.03,0-.06,0-.09,0-.07,0-.14.01-.21.04,0,0,0,0,0,0h0c-.08.03-.15.08-.22.15-.06.06-.11.13-.14.22h0s-.02.09-.03.13c0,.04-.03.08-.03.12,0,.03.01.06.02.09,0,.07.02.13.05.19.03.07.07.14.13.2,0,0,0,0,0,0l4.09,4.09.3.3.44.44c.27.27.26.66.23.88-.06.43-.31.89-.67,1.25-.7.7-1.67.9-2.13.44l-1.17-1.17c.04-.25.05-.51.01-.78-.1-.72-.48-1.44-1.05-2.01-.53-.53-1.16-.85-1.79-.99.19-.41.27-.89.2-1.4-.1-.72-.48-1.44-1.05-2.01-.61-.6-1.35-.96-2.07-1.05.06-.29.08-.59.04-.9-.1-.72-.47-1.44-1.05-2.01-.85-.85-1.97-1.19-2.91-1.01,0-.02,0-.04,0-.06-.1-.73-.48-1.44-1.05-2.01-1.23-1.23-3.04-1.43-4.03-.44,0,0,0,0,0,0l-3.48,3.48-1.72-1.72c-1.87-1.87-2.9-4.35-2.9-7s1.03-5.13,2.9-7c3.86-3.86,10.14-3.86,14,0l.84.84-5.25,5.25c-.61.61-.95,1.38-.96,2.17-.02.83.33,1.64.98,2.29.75.75,1.79,1.14,2.8,1.14.73,0,1.44-.2,2.01-.62,1.23-.89,3.79-3.1,4.85-4.02l11.44,11.41c.27.27.26.66.23.88M27.16,13.02c1.93.13,4.03-.55,5.23-1.75.26-.26.26-.69,0-.95-.26-.26-.69-.26-.95,0-1.46,1.46-5.02,1.95-6.53.44-.45-.45-.9-.88-.9-.88-.13-.12-.29-.18-.46-.18-.02,0-.05,0-.07.01-.06,0-.12.01-.18.03-.03.01-.05.03-.08.05-.04.02-.08.04-.12.07-.04.03-3.74,3.28-5.23,4.35-.76.55-2.17.52-3.08-.38-.39-.39-.59-.84-.58-1.31,0-.44.21-.88.57-1.25l7.05-7.04s0,0,0,0c3.86-3.86,10.14-3.86,14,0,1.87,1.87,2.9,4.35,2.9,7s-1.03,5.13-2.9,7l-1.73,1.72-6.95-6.94Z" fill="#00a58c"/></svg>