<?xml version="1.0" encoding="UTF-8"?><svg id="a" xmlns="http://www.w3.org/2000/svg" width="18.06cm" height="18.06cm" viewBox="0 0 512 512"><path d="M137.9,343.65l-57.56,84.43c-7.94,11.65-23.83,14.67-35.5,6.72s-14.66-23.85-6.72-35.5l57.56-84.43c7.94-11.65,23.83-14.67,35.5-6.72,11.67,7.96,14.66,23.85,6.72,35.5Z" fill="#0088d6" isolation="isolate" opacity=".35"/><path d="M91.49,290.15l-23.37,31.09c-7.94,11.65-23.83,14.67-35.5,6.72s-14.66-23.85-6.72-35.5l23.37-31.09c7.94-11.65,23.83-14.67,35.5-6.72,11.67,7.96,14.66,23.85,6.72,35.5Z" fill="#0088d6" isolation="isolate" opacity=".35"/><circle cx="399.03" cy="64.59" r="63.78" fill="#0088d6" isolation="isolate" opacity=".35"/><path d="M249.92,157.09c16.66-24.85,8.6-59.03-18.44-73.52-23.55-12.58-53.04-3.06-67.91,19.08l-71.74,106.89c-6.61,9.82-3.98,23.14,5.84,29.75l49.13,32.99c9.82,6.61,23.14,3.98,29.75-5.84l73.37-109.34Z" fill="#0088d6" isolation="isolate" opacity=".35"/><path d="M470.88,257.23l-68.33-22.78-50.75-74.93c-11.13-18.66-31.5-31.16-54.81-31.16s-42.92,12.04-54.17,30.13l-47.09,70.92c-8.48,10.83-13.54,24.45-13.54,39.27,0,21.01,10.17,39.65,25.84,51.27l57.02,57.31c5.97,6,6.61,15.46,1.48,22.19l-53.22,70.1h0c-7.91,9.83-7.5,24.23,1.45,33.6,5.01,5.24,11.72,7.88,18.45,7.88,6.33,0,12.68-2.35,17.62-7.07l96.96-92.67c14.67-14.05,16.5-36.46,4.51-52.66l-44.58-67.86,28.55-43.09,32.78,27.05c2.63,2.4,5.73,4.25,9.15,5.39l76.53,25.51c2.68.89,5.4,1.32,8.07,1.32,10.68,0,20.63-6.76,24.2-17.45,4.46-13.37-2.77-27.81-16.13-32.27Z" fill="#0088d6"/><path d="M103.06,242.88c-11.05.99-21.61,6.53-28.39,16.35-7.98,11.53-7.17,39.62-5.66,57.6.71,8.65,9.11,14.46,17.45,12.09,17.35-4.92,43.93-14.03,51.94-25.56,7.04-10.15,8.39-22.45,5.03-33.42l-40.36-27.07Z" fill="#0088d6"/></svg>