<?xml version="1.0" encoding="UTF-8"?><svg id="a" xmlns="http://www.w3.org/2000/svg" width="18.06cm" height="18.06cm" viewBox="0 0 512 512"><path d="M219.51,61.4c0,33.59,27.22,60.83,60.78,60.83s60.83-27.24,60.83-60.83S313.93.62,280.29.62s-60.78,27.24-60.78,60.78Z" fill="#5ab031" isolation="isolate" opacity=".35"/><path d="M421.77,269.38l-59.46-19.81-55.09-74.95c-10.8-16.86-29.7-28.06-51.25-28.06-7.3,0-14.29,1.29-20.78,3.65l-82.59,21.45c-4.94,1.29-9.32,4.06-12.57,7.98l-60.8,72.97c-8.59,10.31-7.2,25.64,3.11,34.25,4.55,3.79,10.07,5.64,15.57,5.64,6.96,0,13.86-2.99,18.68-8.76l45.79-54.95,26.81-4.76-16.05,64.18c-1.24,4.42-2,9.04-2.2,13.8l-13.18,85.28-54.76,84.94c-.89,1.15-1.66,2.34-2.31,3.58l-.04.06h.01c-5.26,10.06-2.87,22.75,6.31,30.16,4.5,3.62,9.9,5.38,15.25,5.38,7.1,0,14.13-3.09,18.95-9.07l67.1-83.3c1.56-1.92,2.8-4.06,3.7-6.35l15.82-40.19,56.39,33.6,28.81,71.55,4.8,16.3c3.11,10.6,12.82,17.46,23.32,17.46,2.26,0,4.57-.32,6.91-1.05,12.89-3.79,20.26-17.32,16.47-30.21l-28.07-95.29c-.9-3.04-2.38-5.86-4.38-8.34l-42.56-53.01c.43-1.31.81-2.63,1.15-3.98h.02s13.49-53.94,13.49-53.94l19.78,19.78c2.68,2.68,5.93,4.69,9.51,5.89l72.97,24.32c2.55.85,5.16,1.26,7.69,1.26,10.19,0,19.68-6.45,23.06-16.66,4.26-12.74-2.63-26.51-15.37-30.77Z" fill="#5ab031"/></svg>