<?xml version="1.0" encoding="UTF-8"?><svg id="a" xmlns="http://www.w3.org/2000/svg" width="18.06cm" height="18.06cm" viewBox="0 0 512 512"><path d="M329.24,63.86c0,35.28,28.59,63.89,63.84,63.89s63.89-28.61,63.89-63.89S428.41.01,393.08.01s-63.84,28.61-63.84,63.84Z" fill="#c3d534" isolation="isolate" opacity=".35"/><path d="M431.42,204.82h-61.08l-45.98-88.82s-.02-.03-.02-.04c-5.27-12.64-14.49-23.23-26.12-30.21l-82.4-55.78c-6.03-4.11-13.49-5.47-20.51-3.63l-102.19,25.55c-13.67,3.42-22,17.29-18.57,30.96,3.45,13.72,17.32,22.02,30.99,18.6l78.71-19.66,24.5,25.46-64.73,64.35h0c-11.8,11.6-19.13,27.73-19.13,45.57,0,15.04,5.21,28.86,13.91,39.77l-.02.26,48.15,60.65-113.14,14.28c-14.1,0-25.55,11.42-25.55,25.55s11.44,25.55,25.55,25.55h91.23l-36.51,89.03c-7.25,12.11-3.35,27.79,8.76,35.05,4.11,2.48,8.66,3.65,13.13,3.65,8.69,0,17.14-4.42,21.92-12.42l73.72-122.86c5.29-3.4,9.92-7.86,13.55-13.22,7.04-10.37,9.59-22.96,7.39-35.04l.07-.08-18.57-77.41,49.79-53.29,35.33,48.13.04-.09c4.71,6.98,12.6,11.25,21.16,11.25h76.64c14.1,0,25.55-11.42,25.55-25.55s-11.44-25.55-25.55-25.55Z" fill="#c3d534"/><path d="M216.12,178.84h-127.73c-14.1,0-25.55-11.42-25.55-25.55s11.44-25.55,25.55-25.55h127.73c14.1,0,25.55,11.42,25.55,25.55s-11.44,25.55-25.55,25.55Z" fill="#c3d534" isolation="isolate" opacity=".35"/><path d="M156.59,281.02H54.41c-14.1,0-25.55-11.42-25.55-25.55s11.44-25.55,25.55-25.55h102.19c14.1,0,25.55,11.42,25.55,25.55s-11.44,25.55-25.55,25.55Z" fill="#c3d534" isolation="isolate" opacity=".35"/></svg>