<?xml version="1.0" encoding="UTF-8"?><svg id="a" xmlns="http://www.w3.org/2000/svg" width="27.75" height="43.25" xmlns:xlink="http://www.w3.org/1999/xlink" viewBox="0 0 27.75 43.25"><defs><linearGradient id="b" x1="13.88" y1="43.25" x2="13.88" y2="0" gradientUnits="userSpaceOnUse"><stop offset="0" stop-color="#eef9ec"/><stop offset="1" stop-color="#b3e2a7"/></linearGradient></defs><path d="M24.52,17.98l-.06-.11h-.87c-.14,0-.29,0-.43.02-.8-1.33-2.35-2.14-3.97-1.97-.7-1.16-1.95-1.93-3.37-1.99v-1.83c.26.13.56.21.87.21h3.24c1.09,0,1.98-.89,1.98-1.98s-.89-1.98-1.98-1.98h-3.24c-.16,0-.31.02-.46.06.15-.09.29-.18.41-.31l2.28-2.28c.77-.77.77-2.03,0-2.8-.77-.77-2.03-.77-2.8,0l-2.28,2.28c-.34.34-.52.76-.56,1.2-.06-.02-.12-.03-.18-.05.27-.34.44-.76.44-1.23V1.98c0-1.09-.89-1.98-1.98-1.98s-1.98.89-1.98,1.98v3.24c0,.08.01.15.02.23-.04-.05-.07-.1-.12-.14l-2.28-2.28c-.77-.77-2.03-.77-2.8,0-.37.37-.58.87-.58,1.4s.21,1.03.58,1.4l2.28,2.28c.14.14.32.26.5.35-.19-.06-.38-.1-.59-.1h-3.17c-1.09,0-1.98.89-1.98,1.98s.89,1.98,1.98,1.98h3.17c.34,0,.65-.09.93-.25v10.73l-.24-.23c-1.87-1.86-4.43-1.45-5.89-.13-1.45,1.32-2.1,3.83-.44,5.87l7.77,9.53v.62c0,1.69,1.07,3.19,2.68,3.74,2.06.7,4.14,1.05,6.21,1.05s4.13-.35,6.17-1.05c1.59-.54,2.66-2.04,2.66-3.73v-1.98c0-.59.15-1.22.44-1.82.56-1.17.86-2.44.86-3.68v-8.97c0-1.97-1.39-3.62-3.24-4.04Z" fill="url(#b)"/><path d="M7.05,11.12h-3.1c-.31,0-.57-.25-.57-.57s.25-.57.57-.57h3.1c.31,0,.57.25.57.57s-.25.57-.57.57Z" fill="#3fa700"/><path d="M8.51,7.57c-.14,0-.29-.06-.4-.17l-2.24-2.24c-.22-.22-.22-.58,0-.8.22-.22.58-.22.8,0l2.24,2.24c.22.22.22.58,0,.8-.11.11-.25.17-.4.17Z" fill="#3fa700"/><path d="M11.92,6.11c-.31,0-.57-.25-.57-.57v-3.17c0-.31.25-.57.57-.57s.57.25.57.57v3.17c0,.31-.25.57-.57.57h0Z" fill="#3fa700"/><path d="M15.52,7.57c-.14,0-.29-.06-.4-.17-.22-.22-.22-.58,0-.8l2.24-2.24c.22-.22.58-.22.8,0,.22.22.22.58,0,.8l-2.24,2.24c-.11.11-.25.17-.4.17Z" fill="#3fa700"/><path d="M20.1,11.12h-3.17c-.31,0-.57-.25-.57-.57s.25-.57.57-.57h3.17c.31,0,.57.25.57.57s-.25.57-.57.57Z" fill="#3fa700"/><path d="M23.69,19.32c-.45,0-.87.11-1.25.31-.21-1.27-1.32-2.24-2.65-2.24-.45,0-.87.11-1.24.31-.21-1.27-1.32-2.24-2.65-2.24-.43,0-.84.11-1.2.29v-5.21c0-.7-.27-1.37-.77-1.87-.5-.5-1.16-.78-1.85-.78h-.05c-1.49,0-2.69,1.21-2.69,2.7v15.49l-2.57-2.55c-1.25-1.24-2.89-.98-3.88-.08-.98.89-1.4,2.51-.29,3.87l7.68,9.42c.15.19.24.43.24.68v.71c0,1.07.68,2.01,1.69,2.36,1.88.64,3.76.96,5.64.96s3.75-.32,5.6-.96c1-.34,1.67-1.29,1.67-2.35v-1.94c0-.82.21-1.64.56-2.37.45-.93.71-1.98.71-3.01v-8.79c0-1.48-1.21-2.68-2.7-2.68h0ZM24.9,30.8c0,.82-.21,1.64-.56,2.37-.45.93-.71,1.98-.71,3.01v1.94c0,.43-.26.82-.67.96-3.4,1.16-6.86,1.16-10.3,0-.41-.14-.68-.52-.68-.96v-.71c0-.59-.2-1.16-.57-1.61l-7.68-9.42c-.59-.72-.29-1.44.14-1.83.43-.39,1.18-.62,1.84.04l3.83,3.8s0,0,.01.01c.01.01.03.03.04.04,0,0,.02.01.03.02,0,0,.02.02.03.02,0,0,.02.01.03.02,0,0,.02.01.03.02.01,0,.02,0,.04.02,0,0,.02,0,.03.01.01,0,.02,0,.04.01.01,0,.02,0,.04.01.01,0,.02,0,.04,0,.01,0,.02,0,.04,0,.01,0,.03,0,.04,0h.03s.04.01.06.02c0,0,0,.01.02.01.03,0,.05-.01.07-.02,0,0,.01,0,.02,0,.02,0,.04,0,.05-.01,0,0,.02,0,.03,0,.01,0,.03,0,.04,0,0,0,.02,0,.03-.01.01,0,.03,0,.04-.01,0,0,.02,0,.03-.01.01,0,.03-.01.04-.02,0,0,.02,0,.02-.01.01,0,.03-.01.04-.02,0,0,.02-.01.03-.02.01,0,.02-.02.04-.03.02-.02.04-.03.05-.05,0,0,.01-.01.02-.02,0-.01.02-.02.03-.04,0,0,.01-.02.02-.03,0,0,.01-.02.02-.03,0-.01.01-.02.02-.04,0,0,.01-.02.02-.03,0-.01.01-.02.02-.04,0,0,0-.02.01-.03,0-.01,0-.02.01-.04,0,0,0-.02.01-.03,0-.01,0-.03,0-.04,0-.01,0-.02,0-.04,0-.01,0-.03,0-.04v-.03s0-.04,0-.06c0,0,0,0,0-.01V10.58c.01-.66.57-1.21,1.24-1.21h.05c.31,0,.59.13.81.35.21.21.33.51.33.82v7.61s-.03,0-.03,0v4.45c0,.07.03.15.05.22.09.3.38.52.71.52.38,0,.7-.29.74-.67,0-.03,0-.05,0-.07v-4.46c0-.66.56-1.2,1.22-1.2s1.22.54,1.22,1.2v5.69c0,.41.33.74.74.74s.74-.33.74-.74v-3.75c0-.66.54-1.2,1.2-1.2s1.2.54,1.2,1.2v5.02c0,.41.33.74.74.74s.74-.33.74-.74v-3.09c0-.66.54-1.2,1.2-1.2s1.2.54,1.2,1.2v8.79h0Z" fill="#3fa700"/></svg>