<?xml version="1.0" encoding="UTF-8"?><svg id="a" xmlns="http://www.w3.org/2000/svg" width="136.07" height="136.06" viewBox="0 0 136.07 136.06"><path d="M136.06,68h-31.46c-.02-20.17-16.37-36.52-36.54-36.54V0c37.55.02,67.98,30.45,68,68Z" fill="#53af3b" opacity=".8"/><path d="M68.04,136.06v-31.46c20.19,0,36.55-16.37,36.57-36.57h31.46c0,37.57-30.45,68.02-68.02,68.02h0Z" fill="#007bc2" opacity=".8"/><path d="M31.46,68v.04c0,20.19,16.37,36.57,36.57,36.57v31.41h-.88C29.98,135.54,0,105.31,0,68.03v-.04h31.46Z" fill="#00aa89" opacity=".8"/><path d="M68.03,31.46c-20.19,0-36.55,16.36-36.57,36.54H.02v-.41C.26,30.22,30.6,0,68.03,0h.01v31.46h-.01Z" fill="#193e92" opacity=".8"/></svg>