<?xml version="1.0" encoding="UTF-8"?><svg id="a" xmlns="http://www.w3.org/2000/svg" width="4.8cm" height="4.8cm" viewBox="0 0 136 136"><path d="M136,67.97h-31.45c-.02-20.16-16.36-36.5-36.52-36.52V0c37.53.02,67.95,30.44,67.97,67.97Z" fill="#53af3b"/><path d="M68.01,136v-31.45c20.18,0,36.53-16.36,36.55-36.55h31.45c0,37.55-30.44,67.99-67.99,67.99h0Z" fill="#007bc2"/><path d="M31.45,67.97v.04c0,20.18,16.36,36.55,36.55,36.55v31.4h-.88C29.97,135.48,0,105.26,0,68v-.04h31.45Z" fill="#00aa89"/><path d="M68,31.45c-20.18,0-36.53,16.35-36.55,36.52H.02v-.41C.26,30.21,30.59,0,68,0h.01v31.45h-.01Z" fill="#193e92"/></svg>