<?xml version="1.0" encoding="UTF-8"?>
<svg id="Capa_1" data-name="Capa 1" xmlns="http://www.w3.org/2000/svg" viewBox="0 0 128 120">
  <defs>
    <style>
      .cls-1 {
        fill: none;
        stroke: #002357;
        stroke-linecap: round;
        stroke-linejoin: round;
        stroke-width: 3.78px;
      }
    </style>
  </defs>
  <rect class="cls-1" x="9.79" y="17.2" width="108.42" height="70.85" rx="1.34" ry="1.34"/>
  <path class="cls-1" d="M79.44,87.92h-30.88c-1.88,0-3.36-1.6-3.21-3.48l1.6-20.07c.51-6.4,5.67-11.38,12-11.74,1.54.72,3.25,1.12,5.05,1.12s3.52-.4,5.05-1.12c6.34.36,11.5,5.35,12,11.74l1.6,20.07c.15,1.87-1.34,3.48-3.21,3.48Z"/>
  <path class="cls-1" d="M75.97,41.78c0,4.81-2.83,8.95-6.92,10.85-1.54.72-3.25,1.12-5.05,1.12s-3.52-.4-5.05-1.12c-4.08-1.9-6.92-6.04-6.92-10.85,0-6.61,5.36-11.97,11.97-11.97s11.97,5.36,11.97,11.97Z"/>
  <line class="cls-1" x1="118.21" y1="98.51" x2="30.46" y2="98.51"/>
  <line class="cls-1" x1="21.87" y1="98.51" x2="9.79" y2="98.51"/>
  <circle class="cls-1" cx="26.16" cy="98.51" r="4.29"/>
</svg>