<?xml version="1.0" encoding="UTF-8"?>
<svg id="Capa_1" data-name="Capa 1" xmlns="http://www.w3.org/2000/svg" viewBox="0 0 128 120">
  <defs>
    <style>
      .cls-1 {
        fill: none;
        stroke: #002357;
        stroke-linecap: round;
        stroke-linejoin: round;
        stroke-width: 3.78px;
      }

      .cls-2 {
        fill: #002357;
      }
    </style>
  </defs>
  <g>
    <path class="cls-1" d="M116.82,56.19c-1.64-2.65-4.55-4.23-7.77-4.23H37.32c-3.56,0-6.79,2-8.24,5.11l-18.97,39.78c.72,2.91,3.44,5.09,6.68,5.09h76.32c3.26,0,6.25-1.85,7.7-4.76l16.4-32.87c1.29-2.6,1.15-5.63-.38-8.11Z"/>
    <path class="cls-1" d="M101,51.58v-14.38c0-3.56-3-6.46-6.7-6.46h-39.39c-.06,0-.1-.01-.11-.03l-7.05-9.86c-1.25-1.75-3.31-2.79-5.51-2.79h-25.63c-3.69,0-6.7,2.9-6.7,6.46v71.31"/>
  </g>
  <g>
    <path class="cls-2" d="M20.09,24.86c-.58,0-1.01.21-1.32.64-.3.43-.46,1.02-.46,1.77s.14,1.34.42,1.75c.28.41.73.62,1.35.62.28,0,.57-.03.86-.1.29-.07.6-.16.94-.28v1.26c-.31.13-.62.22-.92.28-.3.06-.64.09-1.02.09-.73,0-1.33-.15-1.8-.45s-.82-.72-1.04-1.27-.34-1.18-.34-1.91.13-1.34.39-1.89.63-.98,1.12-1.29c.49-.31,1.1-.47,1.81-.47.35,0,.7.04,1.06.13.35.09.69.21,1.02.36l-.49,1.22c-.26-.13-.53-.24-.8-.33-.27-.09-.53-.14-.79-.14Z"/>
    <path class="cls-2" d="M25.47,23.71c.96,0,1.68.17,2.14.53.46.35.69.88.69,1.6,0,.32-.06.61-.18.85-.12.24-.28.45-.49.61-.2.17-.42.31-.65.41l2.08,3.08h-1.67l-1.69-2.72h-.8v2.72h-1.5v-7.08h2.06ZM25.36,24.94h-.46v1.91h.49c.5,0,.85-.08,1.07-.25.21-.17.32-.41.32-.73s-.12-.58-.35-.72-.59-.21-1.07-.21Z"/>
    <path class="cls-2" d="M34.02,30.79h-4.08v-7.08h4.08v1.23h-2.58v1.56h2.4v1.23h-2.4v1.82h2.58v1.24Z"/>
    <path class="cls-2" d="M38.49,30.79l-1.71-5.55h-.04c0,.13.02.33.03.59.01.26.03.55.04.85.01.3.02.57.02.81v3.29h-1.34v-7.08h2.04l1.68,5.41h.03l1.77-5.41h2.04v7.08h-1.4v-3.35c0-.22,0-.48.01-.77,0-.29.02-.57.03-.83,0-.26.02-.46.02-.59h-.04l-1.83,5.54h-1.38Z"/>
  </g>
</svg>