<?xml version="1.0" encoding="UTF-8"?>
<svg id="Capa_1" data-name="Capa 1" xmlns="http://www.w3.org/2000/svg" viewBox="0 0 128 120">
  <defs>
    <style>
      .cls-1 {
        fill: none;
        stroke: #002357;
        stroke-linecap: round;
        stroke-linejoin: round;
        stroke-width: 3.78px;
      }
    </style>
  </defs>
  <path class="cls-1" d="M64.77,20.03c.66-1.96,2.51-3.37,4.69-3.37h23.08c2.32,0,4.21,1.89,4.21,4.21s-1.89,4.21-4.21,4.21h-18.6l7.56,5.5h11.04c5.35,0,9.71-4.36,9.71-9.71s-4.36-9.71-9.71-9.71h-22.36c-.81,0-1.6,0-2.4.14-4.35.7-7.8,4.1-8.59,8.41"/>
  <path class="cls-1" d="M93.61,46.52l-28.84-20.97c-.08.24-.15.5-.19.75-.05.27-.07.55-.07.82v11.54c0,1.52-1.23,2.75-2.75,2.75s-2.75-1.23-2.75-2.75v-11.54c0-.63.06-1.27.18-1.89l-29.27,21.29c-.71.52-1.13,1.34-1.13,2.22v58.99c0,1.52,1.23,2.75,2.75,2.75h60.46c1.52,0,2.75-1.23,2.75-2.75v-58.99c0-.88-.42-1.71-1.13-2.22Z"/>
</svg>