<?xml version="1.0" encoding="UTF-8"?>
<svg id="Layer_1" xmlns="http://www.w3.org/2000/svg" version="1.1" viewBox="0 0 131.3 130.3">
  <!-- Generator: Adobe Illustrator 29.5.0, SVG Export Plug-In . SVG Version: 2.1.0 Build 137)  -->
  <defs>
    <style>
      .st0 {
        fill: #85cec1;
      }

      .st1 {
        fill: #0e7cc1;
      }

      .st2 {
        fill: #06aa89;
      }

      .st3 {
        fill: #54ae47;
      }
    </style>
  </defs>
  <path class="st0" d="M65.8,4.3v28.3c-18.1,0-32.8,14.7-32.9,32.9H4.7c0-33.8,27.4-61.1,61.1-61.1Z"/>
  <path class="st2" d="M127,65.5h-28.3c0-18.2-14.7-32.9-32.9-32.9V4.3c33.8,0,61.2,27.4,61.2,61.2Z"/>
  <path class="st1" d="M65.8,98.3s0,0,0,0c18.2,0,32.9-14.7,32.9-32.9h28.2v.8c-.4,33.4-27.6,60.4-61.1,60.4,0,0,0,0,0,0v-28.3Z"/>
  <path class="st3" d="M32.9,65.5c0,18.2,14.7,32.9,32.9,32.9v28.3h-.4c-33.6-.2-60.8-27.5-60.8-61.1s0,0,0,0h28.3s0,0,0,0Z"/>
</svg>