<?xml version="1.0" encoding="UTF-8"?>
<svg id="Capa_1" data-name="Capa 1" xmlns="http://www.w3.org/2000/svg" viewBox="0 0 128 120">
  <defs>
    <style>
      .cls-1 {
        fill: none;
        stroke: #002357;
        stroke-linecap: round;
        stroke-linejoin: round;
        stroke-width: 3.78px;
      }

      .cls-2 {
        fill: #002357;
      }
    </style>
  </defs>
  <rect class="cls-1" x="20.22" y="16.78" width="85.72" height="87.36" rx="3.11" ry="3.11"/>
  <rect class="cls-1" x="66.87" y="43.93" width="28.28" height="29.12" rx="2.41" ry="2.41"/>
  <line class="cls-1" x1="105.95" y1="30.85" x2="20.22" y2="30.85"/>
  <line class="cls-1" x1="54.91" y1="46.17" x2="28.73" y2="46.17"/>
  <line class="cls-1" x1="54.91" y1="60.19" x2="28.73" y2="60.19"/>
  <line class="cls-1" x1="54.91" y1="74.21" x2="28.73" y2="74.21"/>
  <line class="cls-1" x1="95.15" y1="88.24" x2="28.73" y2="88.24"/>
  <path class="cls-1" d="M67.71,67.49c1.33-2.36,4.62-10.95,8.58-7.08,1.43,1.4,1.68,4.58,3.89,1.56,2.04-2.79,2.86-6.81,5.47-9.15,2.02-1.81,4.2-.95,5.69,1.09,1.94,2.66,2.78,6.36,3.59,9.48"/>
  <circle class="cls-2" cx="96.88" cy="23.82" r="2.59"/>
  <circle class="cls-2" cx="89.58" cy="23.82" r="2.59"/>
</svg>