<?xml version="1.0" encoding="UTF-8"?>
<svg id="Layer_1" xmlns="http://www.w3.org/2000/svg" version="1.1" xmlns:xlink="http://www.w3.org/1999/xlink" viewBox="0 0 381.9 160.2">
  <!-- Generator: Adobe Illustrator 29.5.0, SVG Export Plug-In . SVG Version: 2.1.0 Build 137)  -->
  <defs>
    <style>
      .st0 {
        fill: url(#Degradado_sin_nombre_873);
      }

      .st1 {
        fill: url(#Degradado_sin_nombre_87);
      }

      .st2 {
        fill: #fff;
      }

      .st3 {
        fill: url(#Degradado_sin_nombre_8710);
      }

      .st4 {
        fill: url(#Degradado_sin_nombre_874);
      }

      .st5 {
        fill: url(#Degradado_sin_nombre_875);
      }

      .st6 {
        fill: url(#Degradado_sin_nombre_877);
      }

      .st7 {
        fill: url(#Degradado_sin_nombre_871);
      }

      .st8 {
        fill: url(#Degradado_sin_nombre_878);
      }

      .st9 {
        fill: url(#Degradado_sin_nombre_872);
      }

      .st10 {
        fill: url(#Degradado_sin_nombre_879);
      }

      .st11, .st12 {
        fill: #010101;
      }

      .st13 {
        fill: url(#Degradado_sin_nombre_876);
      }

      .st12 {
        font-size: 7.1px;
      }
    </style>
    <radialGradient id="Degradado_sin_nombre_87" data-name="Degradado sin nombre 87" cx="206.1" cy="72.1" fx="206.1" fy="72.1" r="180" gradientUnits="userSpaceOnUse">
      <stop offset="0" stop-color="#54ae47"/>
      <stop offset="1" stop-color="#c3d432"/>
    </radialGradient>
    <radialGradient id="Degradado_sin_nombre_871" data-name="Degradado sin nombre 87" cx="206.1" cy="72.1" fx="206.1" fy="72.1" r="180" xlink:href="#Degradado_sin_nombre_87"/>
    <radialGradient id="Degradado_sin_nombre_872" data-name="Degradado sin nombre 87" cx="206.1" cy="72.1" fx="206.1" fy="72.1" r="180" xlink:href="#Degradado_sin_nombre_87"/>
    <radialGradient id="Degradado_sin_nombre_873" data-name="Degradado sin nombre 87" cx="206.1" cy="72.1" fx="206.1" fy="72.1" r="180" xlink:href="#Degradado_sin_nombre_87"/>
    <radialGradient id="Degradado_sin_nombre_874" data-name="Degradado sin nombre 87" cx="206.1" cy="72.1" fx="206.1" fy="72.1" r="180" xlink:href="#Degradado_sin_nombre_87"/>
    <radialGradient id="Degradado_sin_nombre_875" data-name="Degradado sin nombre 87" cx="206.1" cy="72.1" fx="206.1" fy="72.1" r="180" xlink:href="#Degradado_sin_nombre_87"/>
    <radialGradient id="Degradado_sin_nombre_876" data-name="Degradado sin nombre 87" cx="206.1" cy="72.1" fx="206.1" fy="72.1" r="180" xlink:href="#Degradado_sin_nombre_87"/>
    <radialGradient id="Degradado_sin_nombre_877" data-name="Degradado sin nombre 87" cx="206.1" cy="72.1" fx="206.1" fy="72.1" r="180" xlink:href="#Degradado_sin_nombre_87"/>
    <radialGradient id="Degradado_sin_nombre_878" data-name="Degradado sin nombre 87" cx="206.1" cy="72.1" fx="206.1" fy="72.1" r="180" xlink:href="#Degradado_sin_nombre_87"/>
    <radialGradient id="Degradado_sin_nombre_879" data-name="Degradado sin nombre 87" cx="206.1" cy="72.1" fx="206.1" fy="72.1" r="180" xlink:href="#Degradado_sin_nombre_87"/>
    <radialGradient id="Degradado_sin_nombre_8710" data-name="Degradado sin nombre 87" cx="206.1" cy="72.2" fx="206.1" fy="72.2" r="179.7" xlink:href="#Degradado_sin_nombre_87"/>
  </defs>
  <g>
    <path class="st11" d="M72.9,40.9c-3.2,0-6.1.7-8.7,2.1-2.6,1.4-4.7,3.4-6.5,6-1.8,2.6-3.2,5.7-4.1,9.4-.9,3.7-1.4,7.9-1.4,12.6s.8,11.7,2.4,16c1.6,4.4,4.1,7.6,7.4,9.9,3.3,2.2,7.5,3.3,12.5,3.3s8.8-.6,13-1.8c4.2-1.2,8.4-2.7,12.7-4.5v23.1c-4.4,2-9,3.4-13.7,4.3-4.7.9-9.7,1.3-15,1.3-11,0-20-2.2-27-6.5-7-4.3-12.2-10.4-15.5-18.2-3.3-7.8-5-16.8-5-27s1.1-14.7,3.2-21.1c2.1-6.4,5.3-11.9,9.4-16.6,4.2-4.7,9.3-8.3,15.4-10.9,6.1-2.6,13.1-3.8,21.1-3.8s10.1.6,15.5,1.7c5.4,1.1,10.7,2.9,15.9,5.4l-8.4,21.6c-3.7-1.8-7.4-3.3-11.2-4.5-3.8-1.2-7.8-1.8-12.1-1.8Z"/>
    <path class="st11" d="M235.1,19.9c9.2,0,16.8,1.1,22.9,3.4,6.1,2.3,10.7,5.6,13.8,10,3.1,4.4,4.6,9.9,4.6,16.5s-.7,7.8-2.1,11.2c-1.4,3.4-3.3,6.4-5.9,9.1-2.6,2.7-5.6,5-9.2,7l29.5,44.1h-31.1l-21.4-36.9h-7v36.9h-27.4V19.9h33.2ZM234.7,40.6h-5.4v23.1h5.1c4.2,0,7.6-.9,10.3-2.8,2.7-1.8,4-5.1,4-9.9s-.5-4-1.4-5.6c-.9-1.6-2.5-2.8-4.5-3.6-2.1-.9-4.8-1.3-8.1-1.3Z"/>
    <path class="st11" d="M354.9,121.2h-60.1V19.9h60.1v22h-32.8v15.9h30.4v22h-30.4v19.1h32.8v22.3Z"/>
  </g>
  <path class="st2" d="M97,93.6c.9,4.9,2.6,10,4.9,15.4l5.3-7.3-5.6-9.1-4.6,1Z"/>
  <path class="st2" d="M199.7,81.4s4.9-15,3.1-30.4c-1-8.2-4.5-16.2-4.5-16.2l1.4,46.6Z"/>
  <g>
    <path class="st1" d="M138.3,118.5c-9.9,0-18.8-4.1-24.9-11.4-7.3-8.7-10.1-21.3-7.7-34.5,4.6-25.1,26.5-45.5,48.9-45.5s18.8,4.1,24.9,11.4c7.3,8.7,10.1,21.3,7.7,34.5h0c-4.6,25.1-26.5,45.5-48.9,45.5ZM154.6,29.4c-21.3,0-42.2,19.6-46.6,43.6-2.3,12.5.3,24.4,7.2,32.6,5.7,6.8,13.9,10.6,23.1,10.6,21.3,0,42.2-19.6,46.6-43.6h0c2.3-12.5-.3-24.4-7.2-32.6-5.7-6.8-13.9-10.6-23.1-10.6Z"/>
    <path class="st7" d="M143.2,100.6c-7.2,0-13.6-2.9-18.1-8.3-5.3-6.4-7.3-15.5-5.6-25.2,3.4-18.4,19.4-33.4,35.8-33.4s13.6,2.9,18.1,8.3c5.3,6.4,7.3,15.5,5.6,25.2-3.4,18.4-19.4,33.4-35.8,33.4ZM155.3,34.4c-16.1,0-31.9,14.8-35.2,32.9-1.7,9.5.3,18.5,5.5,24.7,4.3,5.2,10.6,8.1,17.7,8.1,16.1,0,31.9-14.8,35.2-32.9,1.7-9.5-.3-18.5-5.5-24.7-4.3-5.2-10.6-8.1-17.7-8.1Z"/>
    <path class="st9" d="M142.4,110.2c-8.2,0-15.4-3.3-20.5-9.4-6-7.2-8.3-17.5-6.3-28.3,3.8-20.5,21.7-37.2,40-37.2s15.4,3.3,20.5,9.4c6,7.2,8.3,17.5,6.3,28.3-3.8,20.5-21.7,37.2-40,37.2ZM155.7,37.7c-17.2,0-34.2,15.8-37.7,35.3-1.9,10.1.3,19.7,5.8,26.4,4.6,5.5,11.2,8.5,18.7,8.5,17.2,0,34.2-15.8,37.7-35.3h0c1.9-10.1-.3-19.7-5.8-26.4-4.6-5.5-11.2-8.5-18.7-8.5Z"/>
    <path class="st0" d="M142.4,106.4c-8.2,0-15.4-3.3-20.4-9.4-6-7.2-8.3-17.5-6.3-28.4,3.8-20.7,21.9-37.6,40.3-37.6s15.4,3.3,20.4,9.4c6,7.2,8.3,17.5,6.3,28.4-3.8,20.7-21.9,37.6-40.3,37.6ZM155.9,32.2c-17.9,0-35.5,16.4-39.2,36.7-1.9,10.6.3,20.6,6.1,27.5,4.8,5.8,11.8,9,19.6,9,17.9,0,35.5-16.4,39.2-36.7,1.9-10.5-.3-20.6-6.1-27.5-4.8-5.8-11.8-9-19.6-9Z"/>
    <path class="st4" d="M143.3,104.4c-7.1,0-13.4-2.9-17.7-8.1-5.2-6.2-7.2-15.1-5.4-24.5,3.2-17.8,18.8-32.2,34.6-32.2s13.4,2.9,17.7,8.1c5.2,6.2,7.2,15.1,5.4,24.5-3.2,17.8-18.8,32.2-34.6,32.2ZM154.7,41.9c-14.8,0-29.3,13.6-32.3,30.3-1.6,8.7.2,16.9,4.9,22.6,3.9,4.7,9.6,7.3,16,7.3,14.8,0,29.3-13.6,32.3-30.3h0c1.6-8.7-.2-16.9-4.9-22.6-3.9-4.7-9.6-7.3-16-7.3Z"/>
    <path class="st5" d="M142.2,118.4c-10,0-19-4.1-25.1-11.5-7.4-8.8-10.2-21.6-7.8-35,4.7-25.6,27-46.5,49.8-46.5s19,4.1,25.2,11.5c7.4,8.8,10.2,21.6,7.8,35-4.7,25.6-27,46.5-49.8,46.5ZM159.1,25.9c-22.5,0-44.6,20.6-49.3,46-2.4,13.3.4,25.9,7.6,34.6,6.1,7.3,14.9,11.3,24.7,11.3,22.5,0,44.6-20.6,49.3-46h.3s-.3,0-.3,0c2.4-13.3-.4-25.9-7.6-34.6-6.1-7.3-14.9-11.3-24.7-11.3Z"/>
    <path class="st13" d="M142.4,115.7c-10.2,0-19.4-4.2-25.7-11.8-7.5-9-10.4-22-7.9-35.6,4.7-25.9,27.4-46.9,50.4-46.9s19.4,4.2,25.7,11.8c7.5,9,10.4,22,7.9,35.6-4.7,25.9-27.4,46.9-50.4,46.9ZM159.2,23.7c-22,0-43.6,20.2-48.1,45-2.4,12.9.3,25.2,7.4,33.7,5.9,7.1,14.4,10.9,23.9,10.9,22,0,43.6-20.2,48.1-45h0c2.4-12.9-.3-25.2-7.4-33.7-5.9-7.1-14.4-10.9-23.9-10.9Z"/>
    <path class="st6" d="M140.6,122c-11.1,0-21.1-4.5-28-12.8-8.2-9.8-11.3-24-8.6-38.9,5.2-28.4,30-51.5,55.2-51.5s21.1,4.5,28,12.8c8.2,9.8,11.3,24,8.6,38.9-5.2,28.4-30,51.5-55.2,51.5ZM159.3,20c-24.8,0-49,22.7-54.1,50.6-2.7,14.6.4,28.4,8.4,38,6.7,8,16.3,12.4,27.1,12.4,24.8,0,49-22.7,54.1-50.6h0c2.7-14.6-.4-28.4-8.4-38-6.7-8-16.3-12.4-27.1-12.4Z"/>
    <path class="st8" d="M140.4,125.5c-12.1,0-22.9-4.9-30.4-13.9-8.9-10.7-12.3-26-9.4-42.2,5.6-30.7,32.4-55.7,59.8-55.7s22.9,4.9,30.4,13.9c8.9,10.7,12.3,26,9.4,42.2h0c-5.6,30.7-32.4,55.7-59.8,55.7ZM160.4,15.9c-26.3,0-52.2,24.2-57.6,53.9-2.8,15.5.4,30.2,8.9,40.4,7.1,8.5,17.3,13.1,28.7,13.1,26.3,0,52.2-24.2,57.6-53.9h0c2.8-15.5-.4-30.2-8.9-40.4-7.1-8.5-17.3-13.1-28.7-13.1Z"/>
    <path class="st10" d="M143.2,112.3c-9.3,0-17.6-3.8-23.3-10.7-6.8-8.2-9.5-20-7.2-32.4,4.3-23.7,25-42.9,46-42.9s17.6,3.8,23.3,10.7c6.8,8.2,9.5,20,7.2,32.4h0c-4.3,23.7-25,42.9-46,42.9ZM158.8,27.4c-20.5,0-40.7,18.8-44.9,42-2.2,12.1.3,23.6,6.9,31.5,5.5,6.6,13.5,10.3,22.5,10.3,20.5,0,40.7-18.8,44.9-42,2.2-12.1-.3-23.6-6.9-31.5-5.5-6.6-13.5-10.3-22.5-10.3Z"/>
    <path class="st3" d="M139,127.4c-11.9,0-22.5-4.9-29.9-13.7-8.8-10.5-12.1-25.7-9.2-41.6,5.6-30.4,32.1-55.2,59.2-55.2s22.5,4.9,29.9,13.7c8.8,10.5,12.1,25.7,9.2,41.6-5.6,30.4-32.1,55.2-59.2,55.2ZM159.1,17.5c-26.8,0-53.1,24.6-58.6,54.7-2.9,15.8.4,30.8,9.1,41.2,7.2,8.7,17.7,13.5,29.4,13.5,26.8,0,53.1-24.6,58.6-54.7,2.9-15.8-.4-30.8-9.1-41.2-7.2-8.7-17.7-13.5-29.4-13.5Z"/>
  </g>
  <g>
    <g>
      <path class="st11" d="M326.8,143.6c0,.5-.3.7-.5.7h-1v-6.2h.9c.4,0,.6.3.6.7v4.7ZM328.3,135.8h-7v11.3h7c1,0,1.9-.3,1.9-1.5v-8.3c0-.9-.8-1.5-1.9-1.5M345.2,135.8v2.3h2.5v9h3.5v-9h2.5v-2.3h-8.5ZM336.7,143.8c0,.3,0,.8-.4.8h-.9c-.4,0-.4-.4-.4-.8v-8s-3.7,0-3.7,0v9c0,2.2,2.3,2.4,2.3,2.4h4c2,0,2-2.3,2-2.3v-9h-3c0,4.7,0,8,0,8M340.9,147.1h3.5v-11.3h-3.5v11.3ZM304.9,142.7l1.1-3.1,1.1,3.1h-2.3ZM298.1,139.1c0,.4-.3.7-.7.8h-1.2v-5.3h1.2c.4,0,.7.3.7.8v3.8ZM316.7,140.1l-1.5-4.3h-4.4v7.6l-2.9-7.6h-3.5c-.5-2.1-2-3.5-4.7-3.6h-10.3v14.9h6.6v-4.8h3.9c.8,0,1.4-.1,2-.4l-2.1,5.2h3.7l.8-2.1h3.5s.8,2.1.8,2.1h5.5v-4.2l1.8,4.2h4.1v-11.3h-3.2v4.3Z"/>
      <path class="st11" d="M357.9,137.9v-1.2c0,0,0-.3,0-.5h0l-.6,1.7h-.3l-.6-1.7h0c0,.2,0,.4,0,.5v1.2h-.3v-2h.4l.6,1.7h0l.6-1.7h.4v2h-.3Z"/>
      <polygon class="st11" points="354.4 135.9 356 135.9 356 136.2 355.4 136.2 355.4 137.9 355.1 137.9 355.1 136.2 354.4 136.2 354.4 135.9"/>
    </g>
    <text class="st12" transform="translate(278.8 138.4)"><tspan x="0" y="0">by</tspan></text>
  </g>
</svg>